<?xml version="1.0" standalone="no"?>
<!DOCTYPE svg PUBLIC "-//W3C//DTD SVG 1.1//EN" "http://www.w3.org/Graphics/SVG/1.1/DTD/svg11.dtd" >
<svg>
<metadata>
Created by FontForge 20090622 at Thu Jun 30 04:37:59 2016
 By deploy user
Copyright (c) 2008 by Prinya R. nont. All rights reserved.
</metadata>
<defs>
<font id="DBHelvethaicaX-Ext" horiz-adv-x="0" >
  <font-face 
    font-family="DB Helvethaica X Ext"
    font-weight="400"
    font-stretch="expanded"
    units-per-em="4096"
    panose-1="2 0 5 6 9 0 0 2 0 4"
    ascent="3276"
    descent="-820"
    x-height="1384"
    cap-height="1888"
    bbox="-2228 -1286 3535 3195"
    underline-thickness="82"
    underline-position="-463"
    unicode-range="U+0020-U+F882"
  />
<missing-glyph horiz-adv-x="1704" 
d="M1733 1638v-57h24q29 0 29 37q0 4 -6 12t-23 8h-24zM1745 1577h-12v-57h-21v139h45q49 0 49 -41q0 -29 -12 -35t-29 -6l41 -57h-20zM1757 1499q53 0 71.5 28.5t18.5 53.5q0 45 -22.5 71.5t-67.5 26.5t-69.5 -26.5t-24.5 -71.5q0 -33 22.5 -57.5t71.5 -24.5zM1757 1692
q53 0 78 -33t25 -78q0 -33 -25 -63.5t-78 -30.5q-49 0 -77.5 30.5t-28.5 63.5q0 45 28.5 78t77.5 33zM827 1294q66 -4 154 -16t176 -28.5t162 -39t111 -51.5q-82 164 -254 252t-353 88q-139 0 -266 -53t-209 -164q74 8 147.5 12t147.5 4h92t92 -4zM1540 1618v-582
q-197 62 -450.5 105t-532.5 43q-197 0 -385 -25q25 90 78 174t135 147.5t190.5 100.5t239.5 37q127 0 229.5 -28.5t180.5 -69.5t129 -90.5t76 -86.5q0 -4 -2.5 27t-2.5 76v94v78h115zM631 520q0 33 -22.5 49.5t-47.5 16.5q-29 0 -49 -16.5t-20 -49.5t20 -47t49 -14
q25 0 47.5 14t22.5 47zM135 569q0 95 37 168.5t98.5 122.5t139 73.5t159.5 24.5t158 -22.5t135.5 -67.5t94 -114.5t34.5 -167.5v-475h434v827h115v-934h-774v107h119v487q0 123 -90 184.5t-222 61.5q-122 0 -220.5 -67.5t-98.5 -190.5v-439l238 238q-21 8 -53.5 41t-32.5 94
q0 74 45 117t118 43q70 0 113 -47t43 -113q0 -57 -22.5 -88t-38.5 -47q-9 -8 -70.5 -67.5l-134.5 -129.5l-193 -184h-131v565z" />
    <glyph glyph-name="ellipsis" unicode="&#x2e;&#x2e;&#x2e;" horiz-adv-x="2650" 
d="M283 307h323v-307h-323v307zM1163 307h328v-307h-328v307zM2044 307h323v-307h-323v307z" />
    <glyph glyph-name="dochadaphinthuthai" unicode="&#xe0e;&#xe3a;" horiz-adv-x="2048" 
d="M1851 -516h-270q-23 35 -70.5 67.5t-114.5 57.5t-150 40t-177 15q-78 0 -157 -16.5t-150.5 -46.5t-131.5 -71.5t-102 -90.5v270q37 31 100.5 61t138.5 54t154 38.5t148 14.5q101 0 186.5 -14.5t151 -34.5t110 -41t64.5 -33v1180q0 104 -35 188t-100 143.5t-158.5 91.5
t-210.5 32q-78 0 -159.5 -17.5t-156.5 -53t-138.5 -90.5t-106.5 -130q28 -15 53.5 -43.5t45.5 -70.5t32 -99.5t12 -130.5v-754h-491v217h221v574q0 64 -17 114t-43 86.5t-57 60.5t-59 38q54 132 141.5 231t200 165t245.5 99t277 33q98 0 193.5 -15.5t181.5 -48.5t159 -85
t126.5 -126t83.5 -170.5t30 -218.5v-1470zM1483 -831q0 40 16.5 76t44.5 63.5t65 44t79 16.5q41 0 77.5 -16.5t63.5 -44t43 -63.5t16 -76q0 -43 -16 -80.5t-43 -65t-63.5 -43.5t-77.5 -16q-42 0 -79 16t-65 43.5t-44.5 65t-16.5 80.5z" />
    <glyph glyph-name="topatakphintuthai" unicode="&#xe0f;&#xe3a;" horiz-adv-x="2048" 
d="M1581 934q0 104 -35 188t-100 143.5t-158.5 91.5t-210.5 32q-78 0 -159.5 -17.5t-156.5 -53t-138.5 -90.5t-106.5 -130q28 -15 53.5 -43.5t45.5 -70.5t32 -99.5t12 -130.5v-754h-491v217h221v574q0 64 -17 114t-43 86.5t-57 60.5t-59 38q54 132 141.5 231t200 165
t245.5 99t277 33q98 0 193.5 -15.5t181.5 -48.5t159 -85t126.5 -126t83.5 -170.5t30 -218.5v-1470h-270q-6 28 -28 59.5t-54 58.5t-72.5 44.5t-83.5 17.5q-44 0 -85 -17t-72 -43.5t-49.5 -58.5t-18.5 -61h-221q0 21 -15 52.5t-42.5 61t-67 50t-88.5 20.5q-42 0 -78.5 -16.5
t-63.5 -43t-43 -59.5t-16 -65h-250q0 101 38.5 176.5t100 125.5t138.5 74.5t154 24.5q54 0 105 -11t94.5 -32t77.5 -51.5t54 -69.5q23 37 57 65.5t74.5 47.5t86.5 29t94 10q54 0 97 -10t76.5 -26t58.5 -34.5t42 -35.5v1167zM1483 -831q0 40 16.5 76t44.5 63.5t65 44t79 16.5
q41 0 77.5 -16.5t63.5 -44t43 -63.5t16 -76q0 -43 -16 -80.5t-43 -65t-63.5 -43.5t-77.5 -16q-42 0 -79 16t-65 43.5t-44.5 65t-16.5 80.5z" />
    <glyph glyph-name="dochadasarauthai" unicode="&#xe0e;&#xe38;" horiz-adv-x="2048" 
d="M1851 -516h-270q-23 35 -70.5 67.5t-114.5 57.5t-150 40t-177 15q-78 0 -157 -16.5t-150.5 -46.5t-131.5 -71.5t-102 -90.5v270q37 31 100.5 61t138.5 54t154 38.5t148 14.5q101 0 186.5 -14.5t151 -34.5t110 -41t64.5 -33v1180q0 104 -35 188t-100 143.5t-158.5 91.5
t-210.5 32q-78 0 -159.5 -17.5t-156.5 -53t-138.5 -90.5t-106.5 -130q28 -15 53.5 -43.5t45.5 -70.5t32 -99.5t12 -130.5v-754h-491v217h221v574q0 64 -17 114t-43 86.5t-57 60.5t-59 38q54 132 141.5 231t200 165t245.5 99t277 33q98 0 193.5 -15.5t181.5 -48.5t159 -85
t126.5 -126t83.5 -170.5t30 -218.5v-1470zM1593 -1286v377h-151v217h409v-594h-258z" />
    <glyph glyph-name="topataksarauthai" unicode="&#xe0f;&#xe38;" horiz-adv-x="2048" 
d="M1581 934q0 104 -35 188t-100 143.5t-158.5 91.5t-210.5 32q-78 0 -159.5 -17.5t-156.5 -53t-138.5 -90.5t-106.5 -130q28 -15 53.5 -43.5t45.5 -70.5t32 -99.5t12 -130.5v-754h-491v217h221v574q0 64 -17 114t-43 86.5t-57 60.5t-59 38q54 132 141.5 231t200 165
t245.5 99t277 33q98 0 193.5 -15.5t181.5 -48.5t159 -85t126.5 -126t83.5 -170.5t30 -218.5v-1470h-270q-6 28 -28 59.5t-54 58.5t-72.5 44.5t-83.5 17.5q-44 0 -85 -17t-72 -43.5t-49.5 -58.5t-18.5 -61h-221q0 21 -15 52.5t-42.5 61t-67 50t-88.5 20.5q-42 0 -78.5 -16.5
t-63.5 -43t-43 -59.5t-16 -65h-250q0 101 38.5 176.5t100 125.5t138.5 74.5t154 24.5q54 0 105 -11t94.5 -32t77.5 -51.5t54 -69.5q23 37 57 65.5t74.5 47.5t86.5 29t94 10q54 0 97 -10t76.5 -26t58.5 -34.5t42 -35.5v1167zM1593 -1286v377h-151v217h409v-594h-258z" />
    <glyph glyph-name="fongmanfunnuthai" unicode="&#xe4f;&#x22;" horiz-adv-x="1966" 
d="M1061 2298h262l-25 -447h-204zM651 2298h258l-28 -447h-205zM537 803q0 89 35.5 169t97 141t143.5 96.5t174 35.5q91 0 171.5 -35.5t141 -96.5t95.5 -141t35 -169q0 -92 -35 -173.5t-95.5 -142.5t-141 -96t-171.5 -35q-92 0 -174 35t-143.5 96t-97 142.5t-35.5 173.5z
M754 803q0 -51 17.5 -93.5t48.5 -74t73.5 -49t93.5 -17.5q48 0 89 17.5t71 49t47.5 74t17.5 93.5q0 48 -17.5 89t-47.5 71t-71 47.5t-89 17.5q-51 0 -93.5 -17.5t-73.5 -47.5t-48.5 -71t-17.5 -89zM381 803q0 -126 47.5 -236.5t129.5 -192.5t192.5 -129.5t236.5 -47.5
t236.5 47.5t192.5 129.5t129.5 192.5t47.5 236.5t-47.5 236.5t-129.5 192.5t-192.5 129.5t-236.5 47.5t-236.5 -47.5t-192.5 -129.5t-129.5 -192.5t-47.5 -236.5zM152 803q0 116 29.5 222.5t84 199.5t130.5 169t169 130.5t199.5 84t222.5 29.5t223 -29.5t199.5 -84
t169 -130.5t130.5 -169t84 -199.5t30 -222.5t-30 -223t-84 -199.5t-130.5 -169t-169 -130.5t-199.5 -84t-223 -30t-222.5 30t-199.5 84t-169 130.5t-130.5 169t-84 199.5t-29.5 223z" />
    <glyph glyph-name="lessequal" unicode="&#x3c;&#x3d;" horiz-adv-x="1597" 
d="M373 1044l1102 -462v-234l-1356 570v258l1356 573v-238zM119 221h1356v-221h-1356v221z" />
    <glyph glyph-name="greaterequal" unicode="&#x3e;&#x3d;" horiz-adv-x="1597" 
d="M123 1511v238l1356 -573v-258l-1356 -570v234l1102 462zM1479 0h-1356v221h1356v-221z" />
    <glyph glyph-name="plusminus" unicode="&#x2b;&#x2d;" horiz-adv-x="1593" 
d="M684 1339h225v-401h557v-225h-557v-398h-225v398h-557v225h557v401zM127 221h1339v-221h-1339v221z" />
    <glyph glyph-name="dochadasarauuthai" unicode="&#xe0e;&#xe39;" horiz-adv-x="2048" 
d="M1851 -516h-270q-23 35 -70.5 67.5t-114.5 57.5t-150 40t-177 15q-78 0 -157 -16.5t-150.5 -46.5t-131.5 -71.5t-102 -90.5v270q37 31 100.5 61t138.5 54t154 38.5t148 14.5q101 0 186.5 -14.5t151 -34.5t110 -41t64.5 -33v1180q0 104 -35 188t-100 143.5t-158.5 91.5
t-210.5 32q-78 0 -159.5 -17.5t-156.5 -53t-138.5 -90.5t-106.5 -130q28 -15 53.5 -43.5t45.5 -70.5t32 -99.5t12 -130.5v-754h-491v217h221v574q0 64 -17 114t-43 86.5t-57 60.5t-59 38q54 132 141.5 231t200 165t245.5 99t277 33q98 0 193.5 -15.5t181.5 -48.5t159 -85
t126.5 -126t83.5 -170.5t30 -218.5v-1470zM831 -688h402v-201q0 -184 180 -184q87 0 133.5 45.5t46.5 138.5v201h258v-201q0 -80 -24.5 -151.5t-77.5 -125t-136 -85t-200 -31.5q-114 0 -196.5 26.5t-136.5 75.5t-81 119t-28 156h-140v217z" />
    <glyph glyph-name="topataksarauuthai" unicode="&#xe0f;&#xe39;" horiz-adv-x="2048" 
d="M1581 934q0 104 -35 188t-100 143.5t-158.5 91.5t-210.5 32q-78 0 -159.5 -17.5t-156.5 -53t-138.5 -90.5t-106.5 -130q28 -15 53.5 -43.5t45.5 -70.5t32 -99.5t12 -130.5v-754h-491v217h221v574q0 64 -17 114t-43 86.5t-57 60.5t-59 38q54 132 141.5 231t200 165
t245.5 99t277 33q98 0 193.5 -15.5t181.5 -48.5t159 -85t126.5 -126t83.5 -170.5t30 -218.5v-1470h-270q-6 28 -28 59.5t-54 58.5t-72.5 44.5t-83.5 17.5q-44 0 -85 -17t-72 -43.5t-49.5 -58.5t-18.5 -61h-221q0 21 -15 52.5t-42.5 61t-67 50t-88.5 20.5q-42 0 -78.5 -16.5
t-63.5 -43t-43 -59.5t-16 -65h-250q0 101 38.5 176.5t100 125.5t138.5 74.5t154 24.5q54 0 105 -11t94.5 -32t77.5 -51.5t54 -69.5q23 37 57 65.5t74.5 47.5t86.5 29t94 10q54 0 97 -10t76.5 -26t58.5 -34.5t42 -35.5v1167zM831 -688h402v-201q0 -184 180 -184
q87 0 133.5 45.5t46.5 138.5v201h258v-201q0 -80 -24.5 -151.5t-77.5 -125t-136 -85t-200 -31.5q-114 0 -196.5 26.5t-136.5 75.5t-81 119t-28 156h-140v217z" />
    <glyph glyph-name=".notdef" horiz-adv-x="1704" 
d="M1733 1638v-57h24q29 0 29 37q0 4 -6 12t-23 8h-24zM1745 1577h-12v-57h-21v139h45q49 0 49 -41q0 -29 -12 -35t-29 -6l41 -57h-20zM1757 1499q53 0 71.5 28.5t18.5 53.5q0 45 -22.5 71.5t-67.5 26.5t-69.5 -26.5t-24.5 -71.5q0 -33 22.5 -57.5t71.5 -24.5zM1757 1692
q53 0 78 -33t25 -78q0 -33 -25 -63.5t-78 -30.5q-49 0 -77.5 30.5t-28.5 63.5q0 45 28.5 78t77.5 33zM827 1294q66 -4 154 -16t176 -28.5t162 -39t111 -51.5q-82 164 -254 252t-353 88q-139 0 -266 -53t-209 -164q74 8 147.5 12t147.5 4h92t92 -4zM1540 1618v-582
q-197 62 -450.5 105t-532.5 43q-197 0 -385 -25q25 90 78 174t135 147.5t190.5 100.5t239.5 37q127 0 229.5 -28.5t180.5 -69.5t129 -90.5t76 -86.5q0 -4 -2.5 27t-2.5 76v94v78h115zM631 520q0 33 -22.5 49.5t-47.5 16.5q-29 0 -49 -16.5t-20 -49.5t20 -47t49 -14
q25 0 47.5 14t22.5 47zM135 569q0 95 37 168.5t98.5 122.5t139 73.5t159.5 24.5t158 -22.5t135.5 -67.5t94 -114.5t34.5 -167.5v-475h434v827h115v-934h-774v107h119v487q0 123 -90 184.5t-222 61.5q-122 0 -220.5 -67.5t-98.5 -190.5v-439l238 238q-21 8 -53.5 41t-32.5 94
q0 74 45 117t118 43q70 0 113 -47t43 -113q0 -57 -22.5 -88t-38.5 -47q-9 -8 -70.5 -67.5l-134.5 -129.5l-193 -184h-131v565z" />
    <glyph glyph-name=".null" 
 />
    <glyph glyph-name="nonmarkingreturn" horiz-adv-x="1159" 
 />
    <glyph glyph-name="space" unicode=" " horiz-adv-x="778" 
 />
    <glyph glyph-name="saraileftthai" unicode="&#xf701;" 
d="M-1982 1855l122 218h1196v-218h-1318z" />
    <glyph glyph-name="saraiileftthai" unicode="&#xf702;" 
d="M-1860 2073h934v241h262v-459h-1318z" />
    <glyph glyph-name="saraueleftthai" unicode="&#xf703;" 
d="M-971 2114q0 -38 27 -64.5t67 -26.5q38 0 64.5 26.5t26.5 64.5q0 40 -26.5 67t-64.5 27q-40 0 -67 -27t-27 -67zM-1139 2114q0 54 21 101t56.5 82t83 55t101.5 20t101 -20t82.5 -55t55.5 -82t20 -101t-20 -101t-55.5 -82.5t-82.5 -55.5t-101 -20h-1085l119 218h713
q-4 6 -6.5 18.5t-2.5 22.5z" />
    <glyph glyph-name="saraueeleftthai" unicode="&#xf704;" 
d="M-1860 2073h525v241h258v-241h151v241h262v-459h-1318z" />
    <glyph glyph-name="maieklowleftthai" unicode="&#xf705;" 
d="M-926 2286h262v-431h-262v431z" />
    <glyph glyph-name="maitholowleftthai" unicode="&#xf706;" 
d="M-1548 1855v234h-135v205h368v-234q103 0 179 18t125.5 49.5t73.5 74.5t24 92h249q0 -85 -38.5 -164t-120 -140t-207.5 -98t-301 -37h-217z" />
    <glyph glyph-name="maitrilowleftthai" unicode="&#xf707;" 
d="M-1090 1855q0 17 -2.5 45t-10 54.5t-20 45.5t-32.5 19t-33.5 -16.5t-21.5 -41t-11.5 -53t-3.5 -53.5h-180q0 25 -4 53.5t-12 53t-20 41t-29 16.5q-20 0 -33.5 -19t-21.5 -45.5t-11.5 -54.5t-3.5 -45h-217q-5 99 15 172.5t55 123t82 74t98 24.5q62 0 111.5 -26.5
t80.5 -76.5q31 53 79 78t110 25q38 0 74 -12t65.5 -35.5t51 -58t30.5 -79.5q12 19 21.5 46t15.5 58.5t9 64t3 61.5h229q0 -68 -19 -140.5t-55 -135.5t-86.5 -107.5t-113.5 -55.5h-189z" />
    <glyph glyph-name="maichattawalowleftthai" unicode="&#xf708;" 
d="M-909 2060v-200h-262v200h-246v205h246v197h262v-197h245v-205h-245z" />
    <glyph glyph-name="thanthakhatlowleftthai" unicode="&#xf709;" 
d="M-664 2085q-161 0 -240 -54t-79 -171h-262q0 101 39.5 181t114.5 135.5t182.5 85.5t244.5 32v-209z" />
    <glyph glyph-name="maieklowrightthai" unicode="&#xf70a;" 
d="M-455 2290h267v-430h-267v430z" />
    <glyph glyph-name="maitholowrightthai" unicode="&#xf70b;" 
d="M-885 1860v233h-135v205h365v-234q103 0 179 18t126 49.5t75 74.5t25 92h250q0 -84 -38.5 -163t-120 -140t-208 -98t-301.5 -37h-217z" />
    <glyph glyph-name="maitrilowrightthai" unicode="&#xf70c;" 
d="M-566 1855q0 29 -2.5 58.5t-11 53t-25 38t-45.5 14.5q-31 0 -49.5 -14.5t-28.5 -38t-13 -53t-3 -58.5h-175q0 29 -3.5 58.5t-13 53t-26.5 38t-44 14.5q-29 0 -47 -14.5t-27.5 -38t-13 -53t-3.5 -58.5h-213q-5 99 16 174t60 125.5t90.5 76.5t108.5 26q42 0 74 -8.5
t56.5 -23.5t43 -35.5t32.5 -43.5q17 24 37 44t45 35t56.5 23.5t70.5 8.5q44 0 82.5 -15t68.5 -41.5t51.5 -62.5t32.5 -78q17 6 35.5 25.5t33 50t22 70.5t3.5 88h246q0 -69 -26 -139t-70.5 -130t-104.5 -105t-127 -65h-193z" />
    <glyph glyph-name="maichattawalowrightthai" unicode="&#xf70d;" 
d="M-188 2060v-200h-267v200h-241v205h241v197h267v-197h241v-205h-241z" />
    <glyph glyph-name="thanthakhatlowrightthai" unicode="&#xf70e;" 
d="M-74 2085q-161 0 -238 -54t-77 -171h-266q0 101 39.5 181t114.5 135.5t182.5 85.5t244.5 32v-209z" />
    <glyph glyph-name="yoyingnobasethai" unicode="&#xf70f;" horiz-adv-x="2798" 
d="M1360 934q1 104 -25.5 188t-82 143.5t-139 91.5t-195.5 32q-77 0 -150.5 -15.5t-138.5 -50t-120 -90t-95 -135.5q27 -15 53 -43.5t46 -70.5t32 -99.5t12 -130.5v-537h221v-217h-491v791q0 64 -17 114t-43.5 86.5t-57.5 60.5t-58 38q40 106 112 201.5t174.5 168t233 115.5
t287.5 43q147 0 277 -35t226.5 -114t152.5 -205.5t56 -309.5v-442q0 -86 27 -148t74.5 -102t113 -59t142.5 -19q75 0 138 19t109 59.5t71.5 103.5t25.5 150v1069h270v-1069q0 -107 -25.5 -188.5t-70 -142t-104.5 -101.5t-129 -66t-143 -36t-147 -11q-78 0 -154.5 11
t-146 36.5t-129 66.5t-103 101t-68.5 141t-25 185z" />
    <glyph glyph-name="quoteleft" unicode="&#x2018;" horiz-adv-x="889" 
d="M283 1446q0 78 18.5 151.5t57.5 132.5t100 101t147 57v-131q-38 -12 -66 -32t-47 -51.5t-29 -78t-13 -112.5h155v-307h-323v270z" />
    <glyph glyph-name="quoteright" unicode="&#x2019;" horiz-adv-x="889" 
d="M283 1303q40 13 68.5 33.5t47.5 53t29.5 79t13.5 112.5h-159v307h323v-270q0 -77 -17 -150t-55.5 -132.5t-100 -102t-150.5 -57.5v127z" />
    <glyph glyph-name="quotedblleft" unicode="&#x201c;" horiz-adv-x="1282" 
d="M754 1446q0 78 18.5 151.5t58 132.5t102.5 101t152 57v-131q-41 -12 -70.5 -32t-48.5 -51.5t-29 -78t-11 -112.5h159v-307h-331v270zM197 1446q0 78 18.5 151.5t58 132.5t102.5 101t152 57v-131q-41 -12 -70.5 -32t-48.5 -51.5t-29 -78t-11 -112.5h159v-307h-331v270z
" />
    <glyph glyph-name="quotedblright" unicode="&#x201d;" horiz-adv-x="1282" 
d="M754 1303q40 13 69 33.5t48.5 53t29.5 79t12 112.5h-159v307h331v-270q0 -77 -18.5 -150t-58 -132.5t-102.5 -102t-152 -57.5v127zM197 1303q40 13 68.5 33.5t47.5 53t29.5 79t13.5 112.5h-159v307h331v-270q0 -77 -18.5 -150t-58 -132.5t-102.5 -102t-152 -57.5v127z
" />
    <glyph glyph-name="bullet" unicode="&#x2022;" horiz-adv-x="1327" 
d="M193 946q0 97 37.5 182t102 148.5t151 100t184.5 36.5q97 0 182 -36.5t148.5 -100t100 -148.5t36.5 -182q0 -98 -36.5 -184.5t-100 -151t-148.5 -102t-182 -37.5q-98 0 -184.5 37.5t-151 102t-102 151t-37.5 184.5z" />
    <glyph glyph-name="endash" unicode="&#x2013;" horiz-adv-x="1589" 
d="M135 848h1319v-225h-1319v225z" />
    <glyph glyph-name="emdash" unicode="&#x2014;" horiz-adv-x="2912" 
d="M135 848h2642v-225h-2642v225z" />
    <glyph glyph-name="maihanakatleftthai" unicode="&#xf710;" 
d="M-1130 1855v357h262v-144h1024v-213h-1286z" />
    <glyph glyph-name="nikhahitleftthai" unicode="&#xf711;" 
d="M-1253 2130q0 63 23.5 118t65 96.5t96.5 65t118 23.5q61 0 116.5 -23.5t96.5 -65t65.5 -96.5t24.5 -118t-24.5 -118t-65.5 -96.5t-96.5 -65t-116.5 -23.5q-63 0 -118 23.5t-96.5 65t-65 96.5t-23.5 118zM-1061 2130q0 -21 8.5 -41t23.5 -35.5t35.5 -25t43.5 -9.5t43 9.5
t35 25t23.5 35.5t8.5 41q0 23 -8.5 43t-23.5 35t-35 24t-43 9t-43.5 -9t-35.5 -24t-23.5 -35t-8.5 -43z" />
    <glyph glyph-name="maitaikhuleftthai" unicode="&#xf712;" 
d="M-1561 2204q0 -20 8 -42.5t24 -41.5t40.5 -31t58.5 -12q29 0 54.5 11t44 30t28.5 45t9 57h188q-2 -31 7.5 -57t27 -45t42.5 -30t54 -11q32 0 57 11.5t41 31t22.5 45.5t2.5 55h209q6 -94 -12.5 -163.5t-57.5 -115t-97 -68t-132 -22.5q-54 0 -95.5 15.5t-72.5 39.5
t-52.5 53t-33.5 56q-11 -27 -34.5 -56t-58 -53t-79 -39.5t-98.5 -15.5q-69 0 -121 16.5t-90.5 44.5t-64 63.5t-40.5 74t-21.5 76t-6.5 69.5q0 100 38 171t99 116t138 65.5t155 20.5h835v-196h-811q-62 0 -101.5 -14.5t-62.5 -38.5t-32 -54t-9 -61z" />
    <glyph glyph-name="maiekupperleftthai" unicode="&#xf713;" 
d="M-926 3023h262v-434h-262v434z" />
    <glyph glyph-name="maithoupperleftthai" unicode="&#xf714;" 
d="M-1323 2589v237h-135v205h368v-238q103 0 179 19t125.5 51t73.5 75.5t24 92.5h254q0 -86 -39 -165.5t-120.5 -141t-208.5 -98.5t-304 -37h-217z" />
    <glyph glyph-name="maitriupperleftthai" unicode="&#xf715;" 
d="M-754 2589q0 31 -2 61t-9.5 54t-21 38.5t-36.5 14.5q-25 0 -40 -14.5t-23.5 -38.5t-11.5 -54t-3 -61h-184q0 29 -3.5 59t-12.5 54t-24 39.5t-38 15.5q-25 0 -41.5 -15.5t-26.5 -39.5t-14 -54t-4 -59h-213q-6 98 13 173t56.5 125.5t88.5 76.5t108 26q42 0 74 -8.5t56 -23
t41.5 -34t29.5 -40.5q28 43 78.5 74.5t130.5 31.5q46 0 82.5 -14.5t64.5 -41t47.5 -62.5t30.5 -79q17 8 35.5 28t33.5 51t23.5 71t5.5 88h242q0 -69 -26 -139t-70 -131t-103 -106.5t-125 -65.5h-209z" />
    <glyph glyph-name="maichattawaupperleftthai" unicode="&#xf716;" 
d="M-664 2789v-200h-254v200h-241v205h241v201h254v-201h246v-205h-246z" />
    <glyph glyph-name="thanthakhatupperleftthai" unicode="&#xf717;" 
d="M-344 2548q-160 0 -240 -55t-80 -175h-262q0 102 39.5 182.5t114.5 137t183 87t245 32.5v-209z" />
    <glyph glyph-name="uni00A0" unicode="&#xa0;" horiz-adv-x="467" 
 />
    <glyph glyph-name="kokaithai" unicode="&#xe01;" horiz-adv-x="1982" 
d="M995 1389q-84 0 -169.5 -17.5t-163 -53t-143 -90.5t-109.5 -130q27 -15 53 -43.5t46 -70.5t32 -99.5t12 -130.5v-754h-270v791q0 64 -17 114t-43 86.5t-56 60.5t-56 38q55 133 145 232.5t205 165t251 98t283 32.5q98 0 195.5 -15.5t186.5 -48.5t165 -85t132 -126
t88 -170.5t32 -218.5v-954h-274v934q0 104 -36 188t-103.5 143.5t-165 91.5t-220.5 32z" />
    <glyph glyph-name="khokhaithai" unicode="&#xe02;" horiz-adv-x="1630" 
d="M647 0l-373 1372h-200v213h426l364 -1360l369 1360h283l-443 -1585h-426z" />
    <glyph glyph-name="khokhuatthai" unicode="&#xe03;" horiz-adv-x="1724" 
d="M725 1315q-9 -17 -28.5 -33t-46.5 -29t-60 -20.5t-70 -7.5q-26 0 -61 5t-72.5 18.5t-74.5 38.5t-66.5 65t-47.5 97t-18 136h242q0 -31 10.5 -59.5t30 -51t47.5 -36t63 -13.5q39 0 68.5 12.5t50 34t31 50.5t10.5 63h262v-307q0 -54 -19.5 -95.5t-52 -79t-73.5 -74
t-84 -79.5l-75.5 -74.5t-62 -69.5t-42.5 -73t-17 -86v-106q0 -85 29.5 -150t78 -109t110 -66.5t126.5 -22.5q61 0 122.5 17t111 56t80 101.5t30.5 152.5v1065h271v-1093q0 -91 -25.5 -166t-70 -133.5t-104.5 -102t-128 -71.5t-141.5 -42t-145.5 -14q-74 0 -148.5 15
t-143.5 44.5t-129.5 74t-105 103.5t-70 132t-25.5 160v77q0 63 8 111.5t23.5 87.5t37.5 70.5t51 60.5t63.5 59l74.5 66q28 25 63 52.5t65 62t48 77.5t12 99h-12z" />
    <glyph glyph-name="khokhwaithai" unicode="&#xe04;" horiz-adv-x="1978" 
d="M467 0h-270v954q0 118 32 213t87.5 168.5t131 127t163.5 88t184 51t192 16.5q97 0 194 -16.5t185 -51t164 -88t132 -127t88 -168.5t32 -213v-954h-271v958q0 94 -34.5 173t-101.5 136.5t-164.5 89.5t-223.5 32t-223 -32t-163 -89.5t-100 -136.5t-34 -173v-294
q37 78 87.5 132.5t119 88.5t156 49.5t198.5 15.5v-233q-146 0 -252 -37.5t-174.5 -108t-101.5 -172.5t-33 -231v-168z" />
    <glyph glyph-name="khokhonthai" unicode="&#xe05;" horiz-adv-x="1978" 
d="M1032 1143q-46 -38 -90 0l-237 200q-59 -12 -103.5 -41t-74.5 -71t-45 -96t-15 -115v-356q34 76 82 130.5t114.5 89t153.5 50.5t199 16v-233q-147 0 -251.5 -37.5t-170.5 -108t-96.5 -172.5t-30.5 -231v-168h-270v1016q0 138 46 243.5t123.5 179t179 115t212.5 52.5
l229 -217l230 217q112 -11 214.5 -52.5t180.5 -115t124 -179t46 -243.5v-1016h-271v1020q0 61 -16 115t-46.5 96t-75.5 71t-103 41z" />
    <glyph glyph-name="khorakhangthai" unicode="&#xe06;" horiz-adv-x="1966" 
d="M229 557q0 91 9.5 152t34.5 109t69 91t113 99l84.5 68t61 59t36 72.5t10.5 107.5h-4q-9 -17 -28 -33t-44 -29t-54 -20.5t-58 -7.5q-26 0 -60.5 5t-71.5 18.5t-73 38.5t-64 65t-45.5 97t-17.5 136h242q0 -31 8.5 -59.5t25.5 -51t43.5 -36t61.5 -13.5q34 0 60.5 12.5t45 34
t28 50.5t9.5 63h254v-307q0 -71 -23 -123.5t-56.5 -93t-71 -72t-66.5 -59.5q-41 -39 -75 -75.5t-58 -74.5t-37.5 -80.5t-13.5 -93.5q0 -66 22.5 -121.5t61 -101t89.5 -80.5t108 -58.5t116.5 -35.5t114.5 -12q118 0 208.5 34t151.5 93.5t92 140t31 174.5v946h270v-1007
q0 -146 -51.5 -258.5t-139.5 -189t-206 -116t-250 -39.5q-75 0 -158 13t-165 47.5t-159 94t-140 153.5v-283h-271v557z" />
    <glyph glyph-name="ngonguthai" unicode="&#xe07;" horiz-adv-x="1520" 
d="M602 336q17 -45 45 -72.5t60.5 -43.5t65 -21.5t58.5 -5.5t64 6.5t73 28t60 61.5t25 108v975h-222v213h492v-1184q0 -114 -40 -195t-107.5 -133.5t-156.5 -77t-188 -24.5q-188 0 -316.5 83t-190.5 253l-226 623h287z" />
    <glyph glyph-name="chochanthai" unicode="&#xe08;" horiz-adv-x="1753" 
d="M1634 1073q-1 -70 -12.5 -136t-36 -135.5t-63 -148t-92 -174l-124 -213.5l-159.5 -266h-361l-385 713h-221v217h414l377 -705l122 207.5l95 166t69.5 135t47 113.5t26.5 102t8 100q0 87 -40 153t-105.5 110.5t-149.5 66.5t-172 22q-78 0 -154 -14.5t-140 -47.5
t-111.5 -85.5t-69.5 -127.5h-299q23 129 97 222t182 153t243 88.5t281 28.5q70 0 152 -10t164 -34.5t158 -65t134.5 -101t92.5 -143.5t32 -191z" />
    <glyph glyph-name="chochingthai" unicode="&#xe09;" horiz-adv-x="1917" 
d="M1720 0h-274v274q-62 -93 -134.5 -156t-152 -101t-163.5 -54t-169 -16q-140 0 -254 40.5t-195 118t-125 190.5t-44 257v332h270v-271q0 -92 24.5 -173t79 -142t142 -96t213.5 -35q106 0 198.5 30.5t161.5 92t108.5 153.5t39.5 215v332q0 74 -34.5 146.5t-100.5 130.5
t-161 93.5t-216 35.5q-111 0 -195.5 -23.5t-143 -61t-92 -83.5t-40.5 -90h-287q9 95 64 182.5t152 154t233.5 106.5t308.5 40q135 0 246 -25t198.5 -70.5t151.5 -107.5t106.5 -135.5t63 -156.5t20.5 -169v-958z" />
    <glyph glyph-name="chochangthai" unicode="&#xe0a;" horiz-adv-x="1802" 
d="M1323 614q0 69 -12 116.5t-34 78.5t-53.5 48t-69 25.5t-81 11t-90.5 3.5h-45v193h41q109 0 181.5 25t116 82.5t61.5 152.5t18 235h274q0 -95 -10 -188t-44 -170.5t-100 -133.5t-178 -77q92 -23 149.5 -71t90 -105.5t44 -117.5t11.5 -108v-118q0 -98 -28.5 -176
t-78 -137.5t-116 -101t-143 -68t-159 -38.5t-163.5 -12q-132 0 -256.5 32t-221.5 97.5t-155.5 166t-58.5 237.5v151q0 67 15 115.5t40.5 87.5t58.5 75l70 79l55.5 64.5t50 67t36.5 72t14 78.5q0 32 -13 52t-32 31.5t-41.5 15.5t-40.5 4q-25 0 -55.5 -4.5t-62 -12.5
t-63 -19.5t-57.5 -25.5v213q39 17 81 28.5t81 19t72 11t53 3.5q77 0 141 -16.5t110 -51.5t71.5 -89.5t25.5 -129.5q0 -57 -18.5 -104.5t-48.5 -92t-67.5 -88t-74.5 -92.5l-51 -72.5t-42 -71.5t-28 -73.5t-10 -77.5v-98q0 -83 38 -146.5t98 -106.5t135.5 -65t150.5 -22
q74 0 148.5 16.5t134.5 54t97.5 98.5t37.5 150v90z" />
    <glyph glyph-name="sosothai" unicode="&#xe0b;" horiz-adv-x="1815" 
d="M217 614q0 68 20 121t54 99.5t78.5 90.5l93.5 95q24 26 53 53t53 60.5t37.5 77.5t7.5 104h-12q-9 -17 -24.5 -33t-38 -29t-53 -20.5t-68.5 -7.5q-25 0 -59.5 5t-71.5 18.5t-74 38.5t-66 65t-47 97t-18 136h242q0 -31 8 -59.5t24.5 -51t42 -36t60.5 -13.5q38 0 66.5 12.5
t47 34t28 50.5t9.5 63h262v-307q0 -54 -12.5 -94.5t-36.5 -76.5t-59 -72l-80 -81q-42 -41 -78 -80.5t-62.5 -80t-41.5 -84.5t-15 -95v-90q0 -89 38 -150t98 -98.5t135.5 -54t150.5 -16.5q74 0 148.5 16.5t134.5 54t97.5 98.5t37.5 150v90q0 69 -11 116.5t-30.5 78.5t-48 48
t-63 25.5t-74.5 11t-84 3.5h-49v193h49q98 0 164 25t106 82.5t57 152.5t17 235h274q0 -63 -4 -126t-15.5 -121.5t-34 -111t-59 -94.5t-90 -72t-128.5 -44q92 -23 149.5 -71t89.5 -105.5t43.5 -117.5t11.5 -108v-118q0 -96 -28.5 -173t-78 -136.5t-116 -101.5t-143 -69.5
t-159 -40t-163.5 -12.5q-82 0 -165 13.5t-160 41t-144 70.5t-116.5 102t-78 135.5t-28.5 170.5v118z" />
    <glyph glyph-name="chochoethai" unicode="&#xe0c;" horiz-adv-x="2814" 
d="M287 791q0 64 -17 114t-43.5 86.5t-57.5 60.5t-58 38q40 112 113.5 208.5t176 167.5t233 111.5t284.5 40.5q99 0 190.5 -15.5t170.5 -48.5t144 -85t111 -126t71 -170.5t25 -218.5v-274q0 -55 10 -113.5t31.5 -114t54 -105t77.5 -87t103 -59t130 -21.5q94 0 154 31t95 89
t48.5 139.5t13.5 183.5v962h270v-1024q0 -157 -30.5 -270t-92.5 -186t-155 -107.5t-217 -34.5q-63 0 -129.5 12t-130.5 43t-123.5 83t-108.5 132v-233h-270v934q0 104 -28.5 188t-84 143.5t-138 91.5t-191.5 32q-74 0 -146 -14.5t-137 -48t-121.5 -89.5t-99.5 -139
q27 -15 53 -43.5t46 -70.5t32 -99.5t12 -130.5v-537h221v-217h-491v791z" />
    <glyph glyph-name="dochadathai" unicode="&#xe0e;" horiz-adv-x="2048" 
d="M1851 -516h-270q-23 35 -70.5 67.5t-114.5 57.5t-150 40t-177 15q-78 0 -157 -16.5t-150.5 -46.5t-131.5 -71.5t-102 -90.5v270q37 31 100.5 61t138.5 54t154 38.5t148 14.5q101 0 186.5 -14.5t151 -34.5t110 -41t64.5 -33v1180q0 104 -35 188t-100 143.5t-158.5 91.5
t-210.5 32q-78 0 -159.5 -17.5t-156.5 -53t-138.5 -90.5t-106.5 -130q28 -15 53.5 -43.5t45.5 -70.5t32 -99.5t12 -130.5v-754h-491v217h221v574q0 64 -17 114t-43 86.5t-57 60.5t-59 38q54 132 141.5 231t200 165t245.5 99t277 33q98 0 193.5 -15.5t181.5 -48.5t159 -85
t126.5 -126t83.5 -170.5t30 -218.5v-1470z" />
    <glyph glyph-name="topatakthai" unicode="&#xe0f;" horiz-adv-x="2048" 
d="M1581 934q0 104 -35 188t-100 143.5t-158.5 91.5t-210.5 32q-78 0 -159.5 -17.5t-156.5 -53t-138.5 -90.5t-106.5 -130q28 -15 53.5 -43.5t45.5 -70.5t32 -99.5t12 -130.5v-754h-491v217h221v574q0 64 -17 114t-43 86.5t-57 60.5t-59 38q54 132 141.5 231t200 165
t245.5 99t277 33q98 0 193.5 -15.5t181.5 -48.5t159 -85t126.5 -126t83.5 -170.5t30 -218.5v-1470h-270q-6 28 -28 59.5t-54 58.5t-72.5 44.5t-83.5 17.5q-44 0 -85 -17t-72 -43.5t-49.5 -58.5t-18.5 -61h-221q0 21 -15 52.5t-42.5 61t-67 50t-88.5 20.5q-42 0 -78.5 -16.5
t-63.5 -43t-43 -59.5t-16 -65h-250q0 101 38.5 176.5t100 125.5t138.5 74.5t154 24.5q54 0 105 -11t94.5 -32t77.5 -51.5t54 -69.5q23 37 57 65.5t74.5 47.5t86.5 29t94 10q54 0 97 -10t76.5 -26t58.5 -34.5t42 -35.5v1167z" />
    <glyph glyph-name="thothanthai" unicode="&#xe10;" horiz-adv-x="1753" 
d="M741 -532q-18 71 -46 103t-81 32q-26 0 -47 -11t-36 -29.5t-23 -43t-8 -51.5h-193q0 72 16 126t42 92t59 62.5t67 38.5t66 19.5t57 5.5q49 0 82.5 -10t57 -25t39.5 -33l30 -35q8 17 22 34.5t35.5 31.5t51 23t67.5 9q56 0 102.5 -25.5t74.5 -72.5v148h274v-389h-274
q-5 26 -16 50.5t-28.5 43t-42.5 30t-57 11.5q-31 0 -54 -12t-39 -31t-25.5 -43.5t-12.5 -48.5h-160zM1634 1073q-2 -106 -39.5 -227.5t-103 -256.5t-153.5 -283l-191 -306h-361l-385 713h-221v217h414l377 -705l133 221t118.5 221.5t84.5 206.5t32 175q0 87 -40 153
t-105.5 110.5t-149.5 66.5t-172 22q-78 0 -154 -14.5t-140 -47.5t-111.5 -85.5t-69.5 -127.5h-299q23 129 97 222t182 153t243 88.5t281 28.5q74 0 161.5 -12.5t174.5 -40.5q35 7 60.5 24t42.5 39.5t25.5 48.5t10.5 52h299q-2 -40 -13 -83t-34.5 -83t-60 -74t-88.5 -55
q71 -62 113 -151t42 -210z" />
    <glyph glyph-name="thonangmonthothai" unicode="&#xe11;" horiz-adv-x="2028" 
d="M913 1352q95 72 188.5 121.5t179.5 79.5t162 43.5t138 13.5q57 0 103 -14.5t79 -52t50.5 -101.5t17.5 -164v-1278h-270v1208q0 37 -2 64t-10.5 45t-26 26.5t-47.5 8.5q-42 0 -103.5 -24t-131.5 -63t-145 -88.5t-143 -100t-125.5 -97.5t-93.5 -82q-58 -55 -94 -93.5
t-56 -76.5t-27 -84t-7 -115v-528h-270v496q0 60 1.5 106t7 83t16.5 68.5t29.5 63.5t46 67t66.5 79l132 122q27 28 44 53t25.5 49.5t9.5 48.5t-2 50q-28 -34 -76.5 -56t-107.5 -22q-25 0 -60 5t-72.5 19.5t-74 41t-65 68t-46.5 101.5t-18 142h254q0 -31 8.5 -59.5t25.5 -51
t42 -36t59 -13.5q31 0 56 12.5t42.5 34t27 50.5t9.5 63h254v-233z" />
    <glyph glyph-name="thophuthaothai" unicode="&#xe12;" horiz-adv-x="2892" 
d="M1733 639q0 -48 9 -100.5t28 -103t49.5 -96t74 -80t100 -55t128.5 -20.5q100 0 159.5 32.5t91.5 91.5t42 142.5t10 184.5v950h270v-1012q0 -313 -121 -461.5t-366 -148.5q-65 0 -129 14.5t-125 47.5t-117 87t-104 134v-246h-275v1020q0 61 -17 116.5t-49 99t-77.5 71.5
t-102.5 36l-208 -200q-20 -20 -46 -18.5t-45 18.5l-221 200q-58 -8 -100.5 -36t-70 -71.5t-41 -99t-13.5 -116.5v-717l414 442h-168v197h446v-209l-692 -733h-270v1016q0 138 44.5 245.5t119.5 182.5t174.5 116t209.5 46l213 -217l197 217q112 -5 216.5 -46t184.5 -116
t128.5 -182.5t48.5 -245.5v-377z" />
    <glyph glyph-name="nonenthai" unicode="&#xe13;" horiz-adv-x="2814" 
d="M1360 934q0 104 -28.5 188t-84 143.5t-138 91.5t-191.5 32q-74 0 -146 -14.5t-137 -48t-121.5 -89.5t-99.5 -139q27 -15 53 -43.5t46 -70.5t32 -99.5t12 -130.5v-537h221v-217h-491v791q0 64 -17 114t-43.5 86.5t-57.5 60.5t-58 38q40 112 113.5 208.5t176 167.5
t233 111.5t284.5 40.5q99 0 190.5 -15.5t170.5 -48.5t144 -85t111 -126t71 -170.5t25 -218.5v-352q0 -94 11 -171.5t44.5 -133t95 -86.5t161.5 -31q71 0 129 20.5t103 56.5t77.5 84t54 102t31.5 111.5t10 113.5v917h270v-1585h-270v233q-49 -81 -108 -133.5t-122.5 -83
t-130 -42t-131.5 -11.5q-245 0 -370 143t-125 435v393z" />
    <glyph glyph-name="dodekthai" unicode="&#xe14;" horiz-adv-x="1995" 
d="M467 0h-270v954q0 118 32.5 213t89.5 168.5t134 127t165.5 88t185 51t191.5 16.5t191.5 -16.5t186 -51t167 -88t135 -127t90.5 -168.5t33 -213v-954h-274v958q0 94 -35.5 173t-103 136.5t-166 89.5t-224.5 32t-224.5 -32t-166 -89.5t-102.5 -136.5t-35 -173v-655l471 442
h-213v197h487v-209z" />
    <glyph glyph-name="totaothai" unicode="&#xe15;" horiz-adv-x="1995" 
d="M938 745h-213v197h487v-209l-745 -733h-270v1016q0 138 47.5 243.5t126.5 179t181.5 115t213.5 52.5l229 -217l230 217q111 -11 214 -52.5t183 -115t128 -179t48 -243.5v-1016h-274v1020q0 61 -16.5 115t-48 96t-77.5 71t-104 41l-238 -200q-18 -15 -43 -17t-47 17
l-237 200q-59 -12 -104.5 -41t-77 -71t-48 -96t-16.5 -115v-717z" />
    <glyph glyph-name="thothungthai" unicode="&#xe16;" horiz-adv-x="1991" 
d="M283 791q0 64 -17 114t-43 86.5t-56 60.5t-56 38q55 133 145 232.5t205 165t251 98t283 32.5q98 0 195.5 -15.5t186.5 -48.5t165 -85t132 -126t88 -170.5t32 -218.5v-954h-274v934q0 104 -36 188t-103.5 143.5t-165 91.5t-220.5 32q-84 0 -169.5 -17.5t-163 -53
t-143 -90.5t-109.5 -130q27 -15 53 -43.5t46 -70.5t32 -99.5t12 -130.5v-537h221v-217h-491v791z" />
    <glyph glyph-name="thothahanthai" unicode="&#xe17;" horiz-adv-x="1946" 
d="M197 1585h270v-254q63 95 139.5 155.5t160 95t170 47.5t169.5 13q141 0 259.5 -40.5t203.5 -118.5t132.5 -191.5t47.5 -259.5v-1032h-270v971q0 94 -28 176t-86.5 143t-149 96t-216.5 35q-106 0 -202 -35t-169.5 -99.5t-117 -155t-43.5 -201.5v-930h-270v1585z" />
    <glyph glyph-name="thothongthai" unicode="&#xe18;" horiz-adv-x="1905" 
d="M442 758v-295q0 -51 29 -100.5t92 -89.5t163 -64.5t241 -24.5q149 0 246 22.5t154 57.5t80 79t23 87t-7 83t-34 73.5t-80 58.5t-145 39q-127 22 -289.5 47t-357.5 60q-83 12 -158 37t-132 66.5t-90.5 99.5t-33.5 136q0 108 57.5 197t161.5 152.5t249.5 99t322.5 35.5
q186 0 328.5 -38.5t241.5 -106.5t155 -161t70 -202h-283q-8 57 -46 108.5t-103 91.5t-156.5 63.5t-206.5 23.5q-92 0 -183.5 -16t-164.5 -47t-118.5 -77t-45.5 -106q0 -47 65 -78.5t201 -52.5l578 -98q133 -25 226 -63.5t151 -94t84 -130t26 -171.5q0 -125 -55.5 -218
t-157.5 -154.5t-246.5 -92.5t-322.5 -31q-86 0 -178.5 7.5t-181.5 28t-168.5 56t-139.5 91t-95.5 134t-35.5 183.5v295h270z" />
    <glyph glyph-name="nonuthai" unicode="&#xe19;" horiz-adv-x="1946" 
d="M1749 0h-270v262q-63 -94 -139 -155t-159 -96.5t-170 -49.5t-171 -14q-141 0 -259.5 40.5t-203.5 118t-132.5 190.5t-47.5 257v1032h270v-971q0 -92 27.5 -173t86.5 -142t150 -96t219 -35q106 0 202 35t168.5 100.5t115.5 159.5t43 213v909h270v-1585z" />
    <glyph glyph-name="bobaimaithai" unicode="&#xe1a;" horiz-adv-x="1946" 
d="M971 197q126 0 221 33.5t159 92t96 138.5t32 174v950h270v-946q0 -117 -32 -212t-87 -169.5t-130.5 -129.5t-161.5 -90.5t-180 -53t-187 -17.5q-92 0 -185.5 17.5t-179.5 53t-160.5 90.5t-130 129.5t-87 169.5t-31.5 212v946h270v-950q0 -94 31.5 -174t94.5 -138.5
t157.5 -92t220.5 -33.5z" />
    <glyph glyph-name="poplathai" unicode="&#xe1b;" horiz-adv-x="1946" 
d="M971 197q126 0 221 33.5t159 92t96 138.5t32 174v1646h270v-1642q0 -117 -32 -212t-87 -169.5t-130.5 -129.5t-161.5 -90.5t-180 -53t-187 -17.5q-92 0 -185.5 17.5t-179.5 53t-160.5 90.5t-130 129.5t-87 169.5t-31.5 212v946h270v-950q0 -94 31.5 -174t94.5 -138.5
t157.5 -92t220.5 -33.5z" />
    <glyph glyph-name="phophungthai" unicode="&#xe1c;" horiz-adv-x="2032" 
d="M197 1585h479v-213h-209v-860q0 -81 17.5 -140t46.5 -97t65.5 -56t75.5 -18q60 0 100.5 29.5t65.5 80.5t36 120t11 147v352h270v-352q0 -78 11 -147t36 -120t66.5 -80.5t103.5 -29.5q37 0 71.5 18t61.5 56t43.5 97t16.5 140v1073h270v-1139q0 -123 -34.5 -213t-93 -149
t-135.5 -88t-163 -29q-63 0 -124.5 13t-114.5 40t-94 68t-64 96q-20 -54 -58 -94.5t-88 -67.5t-109 -41t-122 -14q-89 0 -168.5 29t-139.5 88t-95 149t-35 213v1139z" />
    <glyph glyph-name="fofathai" unicode="&#xe1d;" horiz-adv-x="2032" 
d="M197 1585h479v-213h-209v-860q0 -81 17.5 -140t46.5 -97t65.5 -56t75.5 -18q60 0 100.5 29.5t65.5 80.5t36 120t11 147v352h270v-352q0 -78 11 -147t36 -120t66.5 -80.5t103.5 -29.5q37 0 71.5 18t61.5 56t43.5 97t16.5 140v1769h270v-1835q0 -123 -34.5 -213t-93 -149
t-135.5 -88t-163 -29q-63 0 -124.5 13t-114.5 40t-94 68t-64 96q-20 -54 -58 -94.5t-88 -67.5t-109 -41t-122 -14q-89 0 -168.5 29t-139.5 88t-95 149t-35 213v1139z" />
    <glyph glyph-name="phophanthai" unicode="&#xe1e;" horiz-adv-x="2449" 
d="M1417 1585l299 -1229l316 1229h299l-467 -1585h-295l-340 1331l-340 -1331h-295l-475 1585h303l323 -1241l295 1241h377z" />
    <glyph glyph-name="fofanthai" unicode="&#xe1f;" horiz-adv-x="2449" 
d="M1417 1585l299 -1229l492 1925h291l-635 -2281h-295l-340 1331l-340 -1331h-295l-475 1585h303l323 -1241l295 1241h377z" />
    <glyph glyph-name="phosamphaothai" unicode="&#xe20;" horiz-adv-x="2048" 
d="M659 0h-491v217h221v574q0 64 -17 114t-43 86.5t-57 60.5t-59 38q54 132 141.5 231t200 165t245.5 99t277 33q98 0 193.5 -15.5t181.5 -48.5t159 -85t126.5 -126t83.5 -170.5t30 -218.5v-954h-270v934q0 104 -35 188t-100 143.5t-158.5 91.5t-210.5 32
q-78 0 -159.5 -17.5t-156.5 -53t-138.5 -90.5t-106.5 -130q28 -15 53.5 -43.5t45.5 -70.5t32 -99.5t12 -130.5v-754z" />
    <glyph glyph-name="momathai" unicode="&#xe21;" horiz-adv-x="1942" 
d="M197 1585h270v-885q0 -121 43.5 -218t117 -165t169.5 -104.5t202 -36.5q126 0 216.5 35t149 96t86.5 142.5t28 173.5v962h270v-1024q0 -144 -47.5 -257t-132.5 -190.5t-203.5 -118t-259.5 -40.5q-83 0 -169.5 11.5t-170 44t-160 91t-139.5 152.5v-254h-270v1585z" />
    <glyph glyph-name="yoyakthai" unicode="&#xe22;" horiz-adv-x="1942" 
d="M180 1204q0 77 20 135t53.5 100.5t78 70.5t93 44.5t98.5 23.5t95 7h320v-213h-254q-15 0 -37.5 -2t-47 -9t-49 -19t-44 -32t-31.5 -49t-12 -69q0 -68 18 -108.5t49.5 -62.5t74 -30.5t91.5 -11.5h234v-217h-234q-52 -3 -95 -12.5t-73.5 -36.5t-47.5 -76.5t-17 -132.5
q0 -68 38 -124t105 -97t159.5 -63.5t201.5 -22.5q112 0 204.5 26.5t159 81.5t103 139t36.5 199v942h271v-995q0 -146 -59.5 -262t-163.5 -197t-245.5 -124.5t-305.5 -43.5q-106 0 -206 16.5t-187.5 48.5t-160 78t-124.5 105t-80.5 129.5t-28.5 151.5q0 66 10 122.5
t33.5 103.5t62 83.5t95.5 62.5q-60 29 -99 69t-61.5 85.5t-31.5 93t-9 92.5z" />
    <glyph glyph-name="roruathai" unicode="&#xe23;" horiz-adv-x="1782" 
d="M406 483q3 -41 30 -91.5t83.5 -94.5t146.5 -74t219 -30q99 0 171.5 12t124 31.5t83.5 45t51 52t27 53t10 47.5q4 43 -7 76.5t-46 60.5t-97.5 48.5t-161.5 39.5q-66 11 -123.5 22l-113.5 22l-116 23t-130 24q-80 15 -153.5 46t-129 79.5t-86 115t-24.5 152.5
q6 112 61 199.5t148 148t218.5 92t272.5 31.5q183 0 317 -38.5t224.5 -106.5t139.5 -161t61 -202h-287q-8 57 -38 107.5t-85.5 88.5t-137.5 60t-194 22q-75 0 -148.5 -12t-133.5 -40t-100 -72.5t-48 -108.5q-5 -40 13 -71.5t54 -55.5t89 -42t119 -32l393 -65
q146 -23 249 -59.5t167.5 -90.5t92.5 -127t23 -170q-9 -232 -198 -353.5t-547 -121.5q-81 0 -167.5 11t-169.5 36.5t-157 65.5t-131 97.5t-91.5 134.5t-37.5 175h271z" />
    <glyph glyph-name="ruthai" unicode="&#xe24;" horiz-adv-x="1991" 
d="M283 791q0 64 -17 114t-43 86.5t-56 60.5t-56 38q55 133 145 232.5t205 165t251 98t283 32.5q98 0 195.5 -15.5t186.5 -48.5t165 -85t132 -126t88 -170.5t32 -218.5v-1474h-274v1454q0 104 -36 188t-103.5 143.5t-165 91.5t-220.5 32q-84 0 -169.5 -17.5t-163 -53
t-143 -90.5t-109.5 -130q27 -15 53 -43.5t46 -70.5t32 -99.5t12 -130.5v-537h221v-217h-491v791z" />
    <glyph glyph-name="lolingthai" unicode="&#xe25;" horiz-adv-x="1880" 
d="M1413 778q-28 -21 -93.5 -40.5t-176.5 -28.5l-352 -33q-180 -13 -276.5 -76t-96.5 -174q0 -52 28.5 -95t78.5 -73.5t119.5 -47.5t150.5 -17q65 0 123 8.5t114 23.5v-225q-65 -15 -133 -24t-133 -9q-129 0 -226 20t-167 54t-116 79t-73 95t-38 102.5t-11 100.5
q0 100 36 179.5t115.5 138t204.5 95t304 50.5l344 28q58 5 108 17.5t87 35t58 55t21 77.5q0 67 -37 121t-99.5 91.5t-145 57.5t-173.5 20q-93 0 -178.5 -17t-151.5 -53.5t-106 -94t-43 -138.5h-274q6 118 61.5 217t154 170t237.5 110.5t313 39.5q80 0 163.5 -11.5t162.5 -38
t149.5 -69t123 -104.5t83 -145t30.5 -189v-1061h-270v778z" />
    <glyph glyph-name="luthai" unicode="&#xe26;" horiz-adv-x="2048" 
d="M1851 -516h-270v1450q0 104 -35 188t-100 143.5t-158.5 91.5t-210.5 32q-78 0 -159.5 -17.5t-156.5 -53t-138.5 -90.5t-106.5 -130q28 -15 53.5 -43.5t45.5 -70.5t32 -99.5t12 -130.5v-754h-491v217h221v574q0 64 -17 114t-43 86.5t-57 60.5t-59 38q54 132 141.5 231
t200 165t245.5 99t277 33q98 0 193.5 -15.5t181.5 -48.5t159 -85t126.5 -126t83.5 -170.5t30 -218.5v-1470z" />
    <glyph glyph-name="wowaenthai" unicode="&#xe27;" horiz-adv-x="1819" 
d="M139 1069q32 120 93.5 221.5t155 175t220 115t289.5 41.5q139 0 252 -31.5t201.5 -88t153 -134.5t106.5 -171.5t62 -198.5t20 -216q0 -96 -16.5 -194t-53.5 -189t-98 -170.5t-150.5 -138.5t-209.5 -93t-275 -34h12q-188 0 -323 47t-227 127t-145.5 185.5t-78.5 222.5h295
q20 -80 57 -146.5t94 -114t136 -74t184 -26.5q94 0 169.5 22.5t133 63t99 96.5t67.5 123.5t38.5 144t12.5 157.5q0 121 -27 229t-88.5 189t-161 128t-243.5 47h4q-100 0 -176 -23t-132 -64t-94 -99.5t-61 -128.5h-295z" />
    <glyph glyph-name="sosalathai" unicode="&#xe28;" horiz-adv-x="1978" 
d="M467 0h-270v954q0 118 32 213t87.5 168.5t131 127t163.5 88t184 51t192 16.5q93 0 185.5 -15.5t179.5 -46.5q43 0 74.5 20t52.5 49.5t31 64t10 63.5h295q-2 -52 -16 -101.5t-43 -92t-75 -76t-112 -53.5q48 -42 87 -92t67 -109.5t43.5 -128t15.5 -146.5v-954h-271v958
q0 94 -34.5 173t-101.5 136.5t-164.5 89.5t-223.5 32t-223 -32t-163 -89.5t-100 -136.5t-34 -173v-294q37 78 87.5 132.5t119 88.5t156 49.5t198.5 15.5v-233q-146 0 -252 -37.5t-174.5 -108t-101.5 -172.5t-33 -231v-168z" />
    <glyph glyph-name="sorusithai" unicode="&#xe29;" horiz-adv-x="1946" 
d="M836 750v340h270v-119h373v614h270v-614h193v-221h-193v-136q0 -117 -32 -210t-87 -165t-130.5 -123.5t-161.5 -84.5t-180 -48.5t-187 -15.5q-92 0 -185.5 15.5t-179.5 48.5t-160.5 84.5t-130 123.5t-87 165t-31.5 210v971h270v-975q0 -92 31.5 -168t94.5 -130.5
t157.5 -84.5t220.5 -30t221 30t159 84.5t96 130.5t32 168v140h-643z" />
    <glyph glyph-name="sosuathai" unicode="&#xe2a;" horiz-adv-x="1880" 
d="M1413 778q-28 -21 -93.5 -40.5t-176.5 -28.5l-352 -33q-180 -13 -276.5 -76t-96.5 -174q0 -52 28.5 -95t78.5 -73.5t119.5 -47.5t150.5 -17q65 0 123 8.5t114 23.5v-225q-65 -15 -133 -24t-133 -9q-129 0 -226 20t-167 54t-116 79t-73 95t-38 102.5t-11 100.5
q0 100 36 179.5t115.5 138t204.5 95t304 50.5l344 28q58 5 108 17.5t87 35t58 55t21 77.5q0 67 -37 121t-99.5 91.5t-145 57.5t-173.5 20q-93 0 -178.5 -17t-151.5 -53.5t-106 -94t-43 -138.5h-274q6 118 61.5 217t154 170t237.5 110.5t313 39.5q90 0 183.5 -15.5
t176.5 -46.5q34 11 60.5 34.5t45 52t28.5 58t10 52.5h294q-2 -49 -14.5 -96.5t-40.5 -89.5t-71.5 -77.5t-106.5 -59.5q68 -66 107.5 -155.5t39.5 -213.5v-1061h-270v778z" />
    <glyph glyph-name="hohipthai" unicode="&#xe2b;" horiz-adv-x="1917" 
d="M1778 1585l-480 -373q211 -43 321 -186t110 -387v-639h-275v602q0 84 -16 158t-59 130.5t-118.5 92.5t-195.5 45l-598 -463v-565h-270v1585h270v-708l897 708h414z" />
    <glyph glyph-name="lochulathai" unicode="&#xe2c;" horiz-adv-x="2417" 
d="M1864 0h-295l-340 1331l-340 -1331h-295l-475 1585h303l323 -1241l295 1241h377l299 -1229l193 697q1 7 6 23t9.5 34.5t8.5 38.5t4 35q0 92 -47 140t-157 48v213q75 3 136 17.5t105.5 44.5t71.5 76t35 112h315q-9 -78 -40 -138.5t-75.5 -103t-98.5 -69t-109 -37.5
q61 -31 100 -94.5t39 -159.5q0 -18 -2.5 -38t-7.5 -45t-14 -55.5l-21 -70.5z" />
    <glyph glyph-name="oangthai" unicode="&#xe2d;" horiz-adv-x="1925" 
d="M131 877h746v-218h-459q0 -83 34 -167.5t101.5 -153t168 -111.5t232.5 -43q151 0 257.5 46t174 127t99 192t31.5 242q0 130 -31.5 241t-99 192t-174 127t-257.5 46q-106 0 -190.5 -24t-149 -67.5t-109.5 -104t-71 -132.5h-282q37 120 105.5 221.5t169 175t232.5 115
t295 41.5q209 0 367 -66.5t264 -181t159.5 -267.5t53.5 -325q0 -100 -19.5 -199.5t-61.5 -190t-108.5 -168.5t-160.5 -135t-216.5 -89.5t-277.5 -32.5t-277 34t-214 92.5t-156 138t-104 170t-58 188t-18 192.5z" />
    <glyph glyph-name="honokhukthai" unicode="&#xe2e;" horiz-adv-x="1925" 
d="M127 782q0 22 0.5 46t3.5 49h746v-218h-459q0 -83 34 -167.5t101.5 -153t168 -111.5t232.5 -43q171 0 283 62q74 34 127 88t86.5 124.5t49.5 154.5t16 178q0 130 -31.5 241t-99 192t-174 127t-257.5 46q-106 0 -190.5 -24t-149 -67.5t-109.5 -104t-71 -132.5h-282
q37 120 105.5 221.5t169 175t232.5 115t295 41.5q106 0 197 -17.5t168 -48.5h12q45 0 79.5 20t58 49.5t35.5 64t12 63.5h290q-2 -52 -15 -100.5t-44 -91.5t-81.5 -78.5t-125.5 -61.5h-8q66 -58 116 -129.5t83 -153t50 -171.5t17 -185q0 -100 -19.5 -199.5t-61.5 -190
t-108.5 -168.5t-160.5 -135t-216.5 -89.5t-277.5 -32.5t-277 34t-214 92.5t-156 138t-104 170t-58 188t-18 192.5z" />
    <glyph glyph-name="paiyannoithai" unicode="&#xe2f;" horiz-adv-x="1769" 
d="M1303 0v782q-37 -40 -92 -70.5t-120 -51.5t-136 -31.5t-140 -10.5q-157 0 -284 37t-217 105t-138.5 164t-48.5 215q0 85 21.5 151t59 115.5t88 84t107.5 55.5t117.5 30.5t118.5 9.5h233v-229h-233q-120 0 -174.5 -54t-54.5 -167q0 -53 23.5 -104t72 -92t123.5 -66
t178 -25q108 0 199 19.5t157 61.5t103 107t37 156v393h270v-1585h-270z" />
    <glyph glyph-name="saraathai" unicode="&#xe30;" horiz-adv-x="1102" 
d="M197 1049v335h270v-118h479v-217h-749zM197 266v336h270v-119h479v-217h-749z" />
    <glyph glyph-name="maihanakatthai" unicode="&#xe31;" 
d="M-1130 1855v357h262v-144h872v-213h-1134z" />
    <glyph glyph-name="saraaathai" unicode="&#xe32;" horiz-adv-x="1475" 
d="M57 1098q0 83 25 154t69 128.5t104 102t129 74.5t144.5 45.5t151.5 15.5q124 0 235.5 -34.5t195.5 -102.5t133.5 -170.5t49.5 -237.5v-1073h-270v1020q0 92 -25.5 161.5t-71 115.5t-109 69t-138.5 23q-68 0 -127.5 -20t-105 -58t-73 -92t-30.5 -121h-287z" />
    <glyph glyph-name="saraamthai" unicode="&#xe33;" horiz-adv-x="1475" 
d="M57 1098q0 83 25 154t69 128.5t104 102t129 74.5t144.5 45.5t151.5 15.5q124 0 235.5 -34.5t195.5 -102.5t133.5 -170.5t49.5 -237.5v-1073h-270v1020q0 92 -25.5 161.5t-71 115.5t-109 69t-138.5 23q-68 0 -127.5 -20t-105 -58t-73 -92t-30.5 -121h-287zM-643 2130
q0 63 23.5 118t65 96.5t96.5 65t118 23.5t119 -23.5t97.5 -65t66 -96.5t24.5 -118t-24.5 -118t-66 -96.5t-97.5 -65t-119 -23.5t-118 23.5t-96.5 65t-65 96.5t-23.5 118zM-451 2130q0 -21 9.5 -41t25 -35.5t35.5 -25t41 -9.5q23 0 43 9.5t35 25t24 35.5t9 41q0 23 -9 43
t-24 35t-35 24t-43 9q-21 0 -41 -9t-35.5 -24t-25 -35t-9.5 -43z" />
    <glyph glyph-name="saraithai" unicode="&#xe34;" 
d="M-1741 1855l119 218h1434v-218h-1553z" />
    <glyph glyph-name="saraiithai" unicode="&#xe35;" 
d="M-1622 2073h1167v241h267v-459h-1553z" />
    <glyph glyph-name="sarauethai" unicode="&#xe36;" 
d="M-520 2114q0 -19 8 -35.5t21 -29t30 -19.5t35 -7t35 7t30 19.5t21 29t8 35.5q0 20 -8 37t-21 30t-30 20t-35 7t-35 -7t-30 -20t-21 -30t-8 -37zM-684 2114q0 54 20 101t55 82t82 55t101 20t101 -20t82 -55t55 -82t20 -101t-20 -101t-55 -82.5t-82 -55.5t-101 -20h-1315
l119 218h946q-3 6 -5.5 18.5t-2.5 22.5z" />
    <glyph glyph-name="saraueethai" unicode="&#xe37;" 
d="M-1622 2073h758v241h262v-241h147v241h267v-459h-1553z" />
    <glyph glyph-name="sarauthai" unicode="&#xe38;" 
d="M-446 -803v377h-152v217h410v-594h-258z" />
    <glyph glyph-name="sarauuthai" unicode="&#xe39;" 
d="M-1208 -209h401v-201q0 -89 45.5 -136.5t134.5 -47.5q87 0 134 47.5t47 136.5v201h258v-201q0 -80 -24.5 -151.5t-78 -125t-136.5 -85t-200 -31.5q-114 0 -196.5 26.5t-136.5 76t-81 119t-28 155.5h-139v217z" />
    <glyph glyph-name="phinthuthai" unicode="&#xe3a;" 
d="M-524 -397q0 40 15 75.5t41.5 62.5t62.5 42.5t77 15.5q39 0 74 -15.5t61.5 -42.5t42 -62.5t15.5 -75.5t-15.5 -76t-42 -63t-61.5 -42.5t-74 -15.5q-41 0 -77 15.5t-62.5 42.5t-41.5 63t-15 76z" />
    <glyph glyph-name="PUCR2005" unicode="&#xe3e;" 
 />
    <glyph glyph-name="bahtthai" unicode="&#xe3f;" horiz-adv-x="2036" 
d="M213 1888h705v226h167v-226h160q152 0 262 -32t181 -93t105 -149.5t34 -200.5q0 -86 -21 -150.5t-58 -112.5t-87.5 -80.5t-108.5 -53.5v-4q81 -20 147 -57.5t112.5 -95t72 -135.5t25.5 -179q0 -102 -35.5 -199.5t-109 -174.5t-186 -124t-267.5 -47h-226v-283h-167v283
h-705v1888zM1085 864v-618h152q117 0 193 26.5t120.5 71t62 101t17.5 116.5q0 57 -18 111.5t-61 97t-114.5 68.5t-179.5 26h-172zM1085 1647v-541h152q78 0 136.5 21t97.5 57t58 84.5t19 103.5q0 64 -18.5 115.5t-57.5 86.5t-100 54t-147 19h-140zM918 246v618h-426v-618
h426zM918 1106v541h-426v-541h426z" />
    <glyph glyph-name="saraethai" unicode="&#xe40;" horiz-adv-x="668" 
d="M197 0v1585h270v-1585h-270z" />
    <glyph glyph-name="saraaethai" unicode="&#xe41;" horiz-adv-x="1257" 
d="M197 0v1585h270v-1585h-270zM791 0v1585h270v-1585h-270z" />
    <glyph glyph-name="saraothai" unicode="&#xe42;" horiz-adv-x="930" 
d="M328 1839q0 60 -27 109t-69 84t-92.5 54t-98.5 19l53 213h840l127 -217h-606q32 -17 59 -48t46.5 -67t30.5 -73t11 -66v-1630h197v-217h-471v1839z" />
    <glyph glyph-name="saraaimaimuanthai" unicode="&#xe43;" horiz-adv-x="926" 
d="M602 217h197v-217h-471v1495q0 82 23 143t57.5 107.5t75 82l75 66.5t57.5 60.5t23 64.5q0 34 -14.5 61t-41 46.5t-62.5 30t-79 10.5q-44 0 -86 -15.5t-74 -45.5t-50 -74.5t-15 -102.5h-258q8 118 52.5 203t112 139t151 79.5t167.5 25.5q75 0 152 -20.5t140 -62.5
t104.5 -106t46.5 -151q1 -57 -18 -97.5t-51 -75t-72 -68.5t-80 -79q-25 -26 -37.5 -54.5t-18 -59t-6 -61.5t-0.5 -62v-1262z" />
    <glyph glyph-name="saraaimaimalaithai" unicode="&#xe44;" horiz-adv-x="930" 
d="M328 1847q0 29 11 66t30.5 73t46.5 67t59 48h-606l127 217h840l53 -213q-48 0 -98.5 -19t-92.5 -54t-69 -84t-27 -109v-1622h197v-217h-471v1847z" />
    <glyph glyph-name="lakkhangyaothai" unicode="&#xe45;" horiz-adv-x="1491" 
d="M57 1098q0 83 25 154t69 128.5t104 102t129 74.5t144.5 45.5t151.5 15.5q124 0 235.5 -34.5t195.5 -102.5t133.5 -170.5t49.5 -237.5v-1589h-270v1536q0 92 -25.5 161.5t-71 115.5t-109 69t-138.5 23q-68 0 -127.5 -20t-105 -58t-73 -92t-30.5 -121h-287z" />
    <glyph glyph-name="maiyamokthai" unicode="&#xe46;" horiz-adv-x="1712" 
d="M430 1061q0 -121 41.5 -181.5t134.5 -60.5h82v-229h-82q-46 0 -97 9t-101 30t-96 56.5t-80.5 87.5t-55 123.5t-20.5 164.5q0 95 23 187.5t80 168.5t152.5 127.5t239.5 65.5l189 -180l180 180q108 -11 187 -39.5t134.5 -71.5t89.5 -99t53 -122t25.5 -140.5t6.5 -154.5
v-1503h-275v1536q0 54 -5 110.5t-22 104.5t-50.5 81.5t-90.5 39.5l-192 -189q-16 -15 -35 -16.5t-39 16.5l-201 189q-49 -9 -82.5 -33t-54.5 -60.5t-30 -86.5t-9 -111z" />
    <glyph glyph-name="maitaikhuthai" unicode="&#xe47;" 
d="M-1331 2187q0 -17 7 -36t23 -35.5t41 -27.5t60 -11q29 0 54.5 11t44 30t28 45t8.5 57h184q-2 -31 7.5 -57t27.5 -45t42.5 -30t53.5 -11q32 0 57.5 11.5t42 31t23.5 45.5t4 55h209q5 -94 -14 -163.5t-58 -115t-97 -68t-130 -22.5q-55 0 -97.5 15.5t-73.5 39.5t-51.5 53
t-31.5 56q-11 -27 -35 -56t-59 -53t-80.5 -39.5t-99.5 -15.5q-69 0 -121 15.5t-90.5 41.5t-64 59.5t-40.5 70t-21.5 73t-6.5 68.5q0 92 38 160t99 112.5t138 66.5t155 22h868v-205h-856q-58 0 -94.5 -14.5t-57.5 -36.5t-28.5 -48t-7.5 -49z" />
    <glyph glyph-name="maiekthai" unicode="&#xe48;" 
d="M-455 3023h267v-434h-267v434z" />
    <glyph glyph-name="maithothai" unicode="&#xe49;" 
d="M-856 2589v237h-135v205h368v-238q103 0 179 19t125.5 51t73.5 75.5t24 92.5h254q0 -86 -39.5 -165.5t-121.5 -141t-209 -98.5t-302 -37h-217z" />
    <glyph glyph-name="maitrithai" unicode="&#xe4a;" 
d="M-340 2593q0 31 -2 61t-9.5 54t-21.5 38.5t-37 14.5q-24 0 -39.5 -14.5t-23.5 -38.5t-11 -54t-3 -61h-181q0 29 -4 59t-13.5 54t-25.5 39.5t-39 15.5q-24 0 -40.5 -15.5t-26.5 -39.5t-14.5 -54t-4.5 -59h-213q-6 98 13.5 173t57 125.5t88.5 76.5t108 26q43 0 75 -8.5
t56 -23t40.5 -34t28.5 -40.5q14 21 33.5 40.5t45 34t58 23t72.5 8.5q46 0 83.5 -14.5t66 -40.5t48 -62t28.5 -79q17 7 36 27.5t34.5 51t23.5 70.5t4 88h242q0 -69 -26 -139t-70 -131t-103 -106.5t-125 -65.5h-209z" />
    <glyph glyph-name="maichattawathai" unicode="&#xe4b;" 
d="M-188 2789v-200h-267v200h-241v205h241v201h267v-201h241v-205h-241z" />
    <glyph glyph-name="thanthakhatthai" unicode="&#xe4c;" 
d="M-94 2585q-161 0 -238.5 -54t-77.5 -172h-262q0 102 39.5 182t114 135.5t182 85t242.5 31.5v-208z" />
    <glyph glyph-name="nikhahitthai" unicode="&#xe4d;" 
d="M-758 2142q0 63 23.5 118t65 96.5t96.5 65t118 23.5t119 -23.5t98 -65t66.5 -96.5t24.5 -118t-24.5 -118t-66.5 -96.5t-98 -65t-119 -23.5t-118 23.5t-96.5 65t-65 96.5t-23.5 118zM-565 2142q0 -21 9 -41t24.5 -35.5t35.5 -24.5t41 -9q23 0 43.5 9t35.5 24.5t23.5 35.5
t8.5 41q0 23 -8.5 43.5t-23.5 35.5t-35.5 23.5t-43.5 8.5q-21 0 -41 -8.5t-35.5 -23.5t-24.5 -35.5t-9 -43.5z" />
    <glyph glyph-name="yamakkanthai" unicode="&#xe4e;" 
d="M25 2327q-66 0 -110.5 -8.5t-71 -28.5t-37.5 -53.5t-11 -82.5v-49h-61q-56 0 -94.5 -15t-63.5 -42.5t-36 -67t-11 -88.5h-262q0 72 19 140.5t58 123t97.5 90.5t136.5 44q6 57 39 101.5t90.5 76.5t137.5 50.5t180 21.5v-213z" />
    <glyph glyph-name="fongmanthai" unicode="&#xe4f;" horiz-adv-x="1966" 
d="M537 803q0 89 35.5 169t97 141t143.5 96.5t174 35.5q91 0 171.5 -35.5t141 -96.5t95.5 -141t35 -169q0 -92 -35 -173.5t-95.5 -142.5t-141 -96t-171.5 -35q-92 0 -174 35t-143.5 96t-97 142.5t-35.5 173.5zM754 803q0 -51 17.5 -93.5t48.5 -74t73.5 -49t93.5 -17.5
q48 0 89 17.5t71 49t47.5 74t17.5 93.5q0 48 -17.5 89t-47.5 71t-71 47.5t-89 17.5q-51 0 -93.5 -17.5t-73.5 -47.5t-48.5 -71t-17.5 -89zM381 803q0 -126 47.5 -236.5t129.5 -192.5t192.5 -129.5t236.5 -47.5t236.5 47.5t192.5 129.5t129.5 192.5t47.5 236.5t-47.5 236.5
t-129.5 192.5t-192.5 129.5t-236.5 47.5t-236.5 -47.5t-192.5 -129.5t-129.5 -192.5t-47.5 -236.5zM152 803q0 116 29.5 222.5t84 199.5t130.5 169t169 130.5t199.5 84t222.5 29.5t223 -29.5t199.5 -84t169 -130.5t130.5 -169t84 -199.5t30 -222.5t-30 -223t-84 -199.5
t-130.5 -169t-169 -130.5t-199.5 -84t-223 -30t-222.5 30t-199.5 84t-169 130.5t-130.5 169t-84 199.5t-29.5 223z" />
    <glyph glyph-name="zerothai" unicode="&#xe50;" horiz-adv-x="1909" 
d="M1757 737q0 -139 -31.5 -250.5t-86.5 -197.5t-131 -148t-165.5 -101.5t-188.5 -58t-200 -18.5q-100 0 -198.5 18.5t-187.5 58t-165 101.5t-132 148t-87.5 197.5t-31.5 250.5q0 94 26.5 181.5t76.5 163.5t121.5 138.5t160.5 107t194 69t223 24.5t223 -24.5t194.5 -69
t161 -107t121 -138.5t76.5 -163.5t27 -181.5zM1487 684q0 84 -22 153.5t-60 125.5t-89.5 97t-110.5 69t-123.5 41.5t-127.5 13.5q-62 0 -125.5 -13.5t-123 -41.5t-111 -69t-90 -97t-60.5 -125.5t-22 -153.5q0 -95 43.5 -182.5t117 -154.5t169.5 -106.5t202 -39.5t202.5 35
t170 99t117 152.5t43.5 196.5z" />
    <glyph glyph-name="onethai" unicode="&#xe51;" horiz-adv-x="1864" 
d="M864 -33q-87 0 -189.5 6t-207.5 28.5t-207.5 68t-189.5 123.5l213 180q46 -56 113 -93t144 -59t159 -31.5t157 -9.5q117 0 224 36.5t189.5 106.5t131.5 173t49 237q0 103 -38 187t-107 143.5t-164.5 92t-210.5 32.5q-106 0 -192.5 -20.5t-147.5 -58t-94 -89.5t-33 -115
t30 -113.5t88.5 -83t146 -44t202.5 3.5v-193q-50 -12 -93 -14t-83 -2q-71 0 -141.5 11.5t-135 35t-120.5 58.5t-97 82t-64.5 105.5t-23.5 129.5q0 98 30.5 175.5t84 136t126.5 100t157.5 67t177.5 37.5t186 12q167 0 314 -37t256.5 -117.5t173 -208.5t63.5 -309
q0 -172 -66 -313.5t-183.5 -243t-278 -157.5t-349.5 -56z" />
    <glyph glyph-name="twothai" unicode="&#xe52;" horiz-adv-x="2224" 
d="M209 1143q0 63 -6.5 107.5t-21.5 72t-39.5 40.5t-59.5 13l49 217q77 0 141 -24t110 -73.5t71.5 -125t25.5 -178.5v-594q0 -55 26 -106t73.5 -95t113.5 -80t146.5 -62t172 -40t189.5 -14q141 0 252.5 29t188 79.5t117 119.5t40.5 149v331q0 69 -23.5 116.5t-58.5 78
t-76.5 46t-78.5 21.5l-218 -180l-217 168q-24 0 -62.5 -13.5t-74.5 -42.5t-62 -75t-26 -110v-58q0 -48 5 -97t20.5 -89.5t45.5 -66t81 -25.5h98v-197h-70q-99 0 -171 19t-122 52.5t-81 79t-47.5 97.5t-22.5 108t-6 111v61q0 108 45.5 192t120.5 145t170.5 98t195.5 49
l180 -144l168 144q67 -4 134.5 -21.5t130 -47.5t116.5 -71.5t94.5 -94t63.5 -115t23 -134.5v-290q0 -114 -33 -205.5t-90 -163t-134.5 -123.5t-165.5 -85.5t-183.5 -49.5t-188.5 -16h-135q-125 0 -243 21t-221.5 60.5t-190 96t-148.5 128t-96.5 156.5t-34.5 181v520z" />
    <glyph glyph-name="threethai" unicode="&#xe53;" horiz-adv-x="1946" 
d="M733 1155q-24 -2 -57 -11t-67.5 -28.5t-68 -51t-60 -77t-42.5 -107.5t-16 -143v-110q0 -48 2 -98t8.5 -96.5t20 -87t36.5 -71t58 -48t84 -17.5q28 0 78 3.5t106 12.5v-217q-20 -6 -56 -11t-77.5 -8t-81.5 -3.5t-68 2.5q-91 12 -154.5 48t-106 87.5t-66 114.5t-35.5 129.5
t-15 132t-3 123.5v114q0 161 48.5 279t132 198t194 124.5t235.5 58.5l213 -185l225 185q132 -9 242 -54t189 -115.5t123 -160.5t44 -190v-877h-274v877q0 37 -14 72t-37 66.5t-53.5 57.5t-63.5 44.5t-66 28.5t-61 9l-254 -205z" />
    <glyph glyph-name="fourthai" unicode="&#xe54;" horiz-adv-x="1942" 
d="M860 1151q-101 0 -183 -23.5t-139.5 -68t-88.5 -109t-31 -147.5v-193q0 -84 23 -156t71.5 -124.5t123.5 -82.5t179 -30h152q-22 18 -42.5 44.5t-36.5 60.5t-26 74.5t-10 86.5q0 21 3 53t15.5 67t38.5 70t71.5 63t114 45.5t167.5 17.5v-213q-62 0 -95.5 -14.5t-50 -35
t-19.5 -42t-3 -35.5q0 -49 26 -93t62 -77t74 -52.5t63 -19.5h475v-217h-1012q-123 0 -217.5 26.5t-164.5 71.5t-117.5 104.5t-76.5 126t-41.5 135.5t-12.5 134v160q0 157 53 272.5t149 191.5t231 113t300 37h438q63 0 103 15t62.5 42.5t31 67t8.5 88.5h278q0 -51 -7.5 -103
t-26.5 -100.5t-51.5 -90.5t-83 -73t-121 -49t-164.5 -18h-492z" />
    <glyph glyph-name="fivethai" unicode="&#xe55;" horiz-adv-x="1942" 
d="M1257 1425q0 -9 -1 -18.5t-3 -17.5q-2 -9 -4 -17h127q40 0 69 18t47.5 47.5t27 68t8.5 79.5h287q0 -51 -7.5 -103t-26.5 -100.5t-52 -90.5t-83.5 -73t-121 -49t-164.5 -18h-483q-102 0 -185.5 -19t-143.5 -61t-93 -108t-33 -160v-193q0 -84 23 -156t71.5 -124.5
t123.5 -82.5t179 -30h148q-22 18 -42.5 44.5t-36.5 60.5t-26 74.5t-10 86.5q0 21 3 53t15.5 67t38.5 70t71.5 63t114 45.5t167.5 17.5v-213q-62 0 -95.5 -14.5t-50 -35t-19.5 -42t-3 -35.5q0 -49 18.5 -93t47.5 -77t64.5 -52.5t69.5 -19.5h500v-217h-1008
q-123 0 -217.5 25.5t-165 69t-118.5 102t-77.5 125t-42.5 137t-13 139.5v160q0 135 45 244.5t121 187.5t176 120t211 42h40q-6 12 -9 32t-3 41q0 55 20 104t55 85t82 57t101 21q58 0 107 -21t84.5 -57t55 -85t19.5 -104zM881 1434q0 -23 9 -43.5t24.5 -35.5t35.5 -23.5
t41 -8.5q22 0 41.5 8.5t34 23.5t23 35.5t8.5 43.5q0 21 -8.5 40.5t-23 34t-34 23t-41.5 8.5q-21 0 -41 -8.5t-35.5 -23t-24.5 -34t-9 -40.5z" />
    <glyph glyph-name="sixthai" unicode="&#xe56;" horiz-adv-x="1999" 
d="M467 1245q40 23 105 50t144.5 49.5t167.5 37.5t173 15q196 0 345 -52t248.5 -145t150 -221.5t50.5 -282.5q0 -152 -58.5 -283t-167.5 -227t-264.5 -151t-348.5 -55q-90 0 -177.5 16t-166.5 45t-146 70.5t-115.5 92.5t-76 111t-27.5 127q0 95 34.5 164.5t96 115
t146.5 67.5t186 22h119v-197h-107q-63 0 -101.5 -14t-59.5 -37.5t-28 -54t-7 -62.5q0 -54 38.5 -99.5t101 -78.5t142 -52t160.5 -19q60 0 124.5 13.5t126 41t116.5 68.5t96.5 96t65.5 124t24 152q0 135 -43 227.5t-114 149.5t-162.5 82t-188.5 25q-101 0 -194.5 -15.5
t-180.5 -45.5t-169 -72.5t-160 -96.5l-271 447l213 123z" />
    <glyph glyph-name="seventhai" unicode="&#xe57;" horiz-adv-x="2331" 
d="M1884 1192q0 103 25.5 178.5t72 125t110 73.5t140.5 24l58 -217q-71 0 -103.5 -53.5t-32.5 -179.5v-443q0 -150 -47 -273.5t-134 -215t-211 -149.5t-279 -78l-201 147q57 58 88 115t45 116t16.5 121t2.5 131v123q0 100 -27.5 173t-68.5 122t-89 76t-90 35l-221 -201
l-213 205q-24 -1 -56 -12t-66 -32.5t-66.5 -55t-58 -80t-41 -105.5t-15.5 -133v-106q0 -35 3 -78.5t11.5 -89t23 -88t37 -76t53.5 -54t73 -20.5q10 0 27.5 0.5t37 2t39.5 4t35 5.5v-213q-25 -6 -69.5 -15t-94.5 -9q-82 0 -147 25.5t-114.5 70t-84.5 105t-57 129.5
t-32.5 143.5t-10.5 148.5v111q0 154 48 271.5t130.5 200t192.5 130.5t235 62l180 -181l184 176q144 -17 253 -72.5t182 -140.5t110 -196t37 -238v-114q-2 -45 -8.5 -100.5t-18.5 -110t-29 -102.5t-38 -77q58 17 108 59t87 101t58 130.5t21 148.5v520z" />
    <glyph glyph-name="eightthai" unicode="&#xe58;" horiz-adv-x="1942" 
d="M823 1147q-100 0 -176.5 -35.5t-128 -92t-78 -126.5t-26.5 -139v-226q0 -74 31.5 -129t80 -93t106 -58t109.5 -23l116.5 103l113.5 102l250 -205q58 0 114.5 13t101 43.5t72 82t27.5 128.5q0 34 -6 66t-22 58.5t-44.5 45t-74.5 26.5q-5 1 -18 2t-29.5 1.5t-32.5 0.5h-27
v201h119q84 0 146 -17t105.5 -47t71 -69t43 -84t21.5 -92t6 -92q0 -125 -43 -219.5t-123 -159t-193.5 -97t-254.5 -32.5l-209 176l-193 -176q-87 0 -168 17t-151.5 49.5t-128.5 80t-99.5 108t-64.5 133t-23 156.5v213q0 143 49 259.5t141 199t223.5 127.5t295.5 45h537
q61 0 100.5 15t62.5 42.5t32 67t9 88.5h262q0 -77 -18 -155t-67.5 -141t-138.5 -102.5t-230 -39.5h-578z" />
    <glyph glyph-name="ninethai" unicode="&#xe59;" horiz-adv-x="1921" 
d="M1442 1393q60 0 95.5 11.5t54.5 35.5t24.5 60t5.5 85h270q0 -51 -6 -101.5t-22.5 -96.5t-46.5 -85.5t-78 -68.5t-116 -45.5t-161 -16.5h-78q-12 0 -24 -7.5t-25 -16.5l-94 -98l479 -1049h-286l-418 950q-20 39 -38 78t-40.5 71t-53.5 52t-77 20h-94q-34 0 -69 -7.5
t-68.5 -26.5t-63 -50.5t-51 -80t-34.5 -115t-13 -154.5v-147q1 -39 5.5 -82t14 -85t26 -80t41.5 -67t60 -46t82 -17q29 0 53 2t45.5 6.5t42 10.5t43.5 14l37 -213q-23 -12 -52.5 -21t-62.5 -14t-66.5 -7.5t-64.5 -2.5q-135 0 -226 50t-146.5 135t-79 198t-23.5 239v119
q0 174 37 299.5t110 206.5t180 119.5t247 38.5h135q46 0 85.5 -5.5t74 -21t65 -44.5t58.5 -77l122 127q7 3 20.5 12t29.5 9h135z" />
    <glyph glyph-name="angkhankhuthai" unicode="&#xe5a;" horiz-adv-x="2355" 
d="M1303 0v782q-37 -40 -92 -70.5t-120 -51.5t-136 -31.5t-140 -10.5q-157 0 -284 37t-217 105t-138.5 164t-48.5 215q0 85 21.5 151t59 115.5t88 84t107.5 55.5t117.5 30.5t118.5 9.5h233v-229h-233q-120 0 -174.5 -54t-54.5 -167q0 -53 23.5 -104t72 -92t123.5 -66
t178 -25q108 0 199 19.5t157 61.5t103 107t37 156v393h270v-1585h-270zM1884 0v1585h270v-1585h-270z" />
    <glyph glyph-name="khomutthai" unicode="&#xe5b;" horiz-adv-x="3592" 
d="M2937 827q-18 -23 -47.5 -64l-64.5 -93.5l-73 -112l-73 -119.5l-65 126.5l-67 128l-63 112.5t-51 80q-26 -29 -62.5 -87t-75.5 -132t-76 -158.5t-65 -167.5q-32 83 -68 161t-70.5 145.5t-66.5 120.5t-57 85q-14 -117 -52 -225.5t-97 -204t-138 -174t-176 -134.5t-210 -87
t-240 -31q-132 0 -245.5 30t-206 84.5t-164.5 130t-120.5 167t-74 195.5t-25.5 216q0 102 23 198.5t68 182.5t110.5 158t150 124.5t187.5 81.5t223 29q151 0 262.5 -50.5t185.5 -137.5t111 -202.5t39 -244.5h-262q0 75 -23 139.5t-66.5 112t-106 76t-140.5 33.5
q-97 0 -183 -36t-151 -102.5t-103 -162t-38 -215.5q0 -126 44 -227t119 -171.5t175.5 -108.5t214.5 -38q118 0 215.5 36.5t175.5 101t136 152.5t96.5 190.5t57.5 215t19 226.5l177 123q34 -42 75.5 -105.5l82.5 -131l77 -128.5l59 -98q31 54 68 112.5l74 114.5l72 105.5
l61 84.5q28 -32 63.5 -80.5l71 -100.5t66.5 -102t49 -85q14 20 35.5 47t46 55l48.5 54l42 45h500l184 -263h-598z" />
    <glyph glyph-name="saraulowthai" unicode="&#xf718;" 
d="M-446 -1241v373h-152v217h410v-590h-258z" />
    <glyph glyph-name="sarauulowthai" unicode="&#xf719;" 
d="M-1208 -655h401v-201q0 -90 45.5 -135t134.5 -45q87 0 134 45t47 135v201h258v-201q0 -80 -24.5 -150.5t-78 -123.5t-136.5 -84t-200 -31q-114 0 -196.5 26.5t-136.5 75t-81 117.5t-28 154h-139v217z" />
    <glyph glyph-name="phinthulowthai" unicode="&#xf71a;" 
d="M-524 -811q0 40 15 75.5t41.5 62.5t62.5 43t77 16q39 0 74 -16t61.5 -43t42 -62.5t15.5 -75.5t-15.5 -76t-42 -63t-61.5 -42.5t-74 -15.5q-41 0 -77 15.5t-62.5 42.5t-41.5 63t-15 76z" />
    <glyph glyph-name="rulakkhangyao" unicode="&#xf881;" horiz-adv-x="2925" 
d="M283 791q0 64 -17 114t-43 86.5t-56 60.5t-56 38q55 133 145 232.5t205 165t251 98t283 32.5q86 0 171 -12t164 -37t150 -63.5t130 -92.5q45 49 102.5 87t123 64.5t136.5 40t142 13.5q123 0 233.5 -34.5t194 -102.5t133 -170.5t49.5 -237.5v-1593h-270v1540
q0 92 -25.5 161.5t-71 115.5t-108 69t-135.5 23q-66 0 -125.5 -19.5t-104.5 -55.5t-73.5 -88t-32.5 -116q6 -34 11 -73t5 -83v-1474h-274v1454q0 104 -36 188t-103.5 143.5t-165 91.5t-220.5 32q-84 0 -169.5 -17.5t-163 -53t-143 -90.5t-109.5 -130q27 -15 53 -43.5
t46 -70.5t32 -99.5t12 -130.5v-537h221v-217h-491v791z" />
    <glyph glyph-name="lulakkhangyao" unicode="&#xf882;" horiz-adv-x="2982" 
d="M1851 -516h-270v1450q0 104 -35 188t-100 143.5t-158.5 91.5t-210.5 32q-78 0 -159.5 -17.5t-156.5 -53t-138.5 -90.5t-106.5 -130q28 -15 53.5 -43.5t45.5 -70.5t32 -99.5t12 -130.5v-754h-491v217h221v574q0 64 -17 114t-43 86.5t-57 60.5t-59 38q54 132 141.5 231
t200 165t245.5 99t277 33q85 0 167.5 -12t159 -36.5t144.5 -62.5t123 -90q46 48 103.5 85t122 63t134 39.5t140.5 13.5q124 0 235.5 -34.5t195.5 -102.5t133.5 -170.5t49.5 -237.5v-1585h-274v1532q0 92 -25.5 161.5t-71 115.5t-108 69t-135.5 23q-66 0 -125 -19.5
t-104.5 -55.5t-74 -88t-32.5 -116q6 -34 11 -73t5 -83v-1470z" />
    <glyph glyph-name="lochula.short" unicode="&#xf71d;" horiz-adv-x="2417" 
d="M1864 0h-295l-340 1331l-340 -1331h-295l-475 1585h303l323 -1241l295 1241h377l299 -1229l193 697q1 7 6 23t9.5 34.5t8.5 38.5t4 35q0 92 -47 140t-157 48v213q75 3 136 17.5t105.5 44.5t71.5 76t35 112h315q-9 -78 -40 -138.5t-75.5 -103t-98.5 -69t-109 -37.5
q61 -31 100 -94.5t39 -159.5q0 -18 -2.5 -38t-7.5 -45t-14 -55.5l-21 -70.5z" />
    <glyph glyph-name="uni25CC" unicode="&#x25cc;" horiz-adv-x="1774" 
d="M541 430l61 152q22 -34 47 -59.5t56 -47.5zM885 1233l69 -148q-37 7 -76 5t-67 -9zM885 287l-70 143q37 -9 66.5 -8.5t72.5 12.5zM1360 758l-148 -66q13 34 13.5 68t-8.5 71zM414 762l151 74q-6 -34 -7.5 -72.5t7.5 -75.5zM569 1094l156 -54q-40 -18 -70 -42t-49 -52z
M1208 426l-143 45q31 22 55.5 44.5t42.5 53.5zM1233 1094l-70 -152q-18 31 -46 57.5t-56 44.5z" />
    <glyph glyph-name="yamakkanleftthai" 
d="M-541 2388q-66 0 -107.5 -8.5t-65 -28.5t-32 -53t-8.5 -82v-49h-61q-56 0 -94.5 -15t-63.5 -42.5t-36 -67t-11 -88.5h-262q0 72 19 140.5t58 123t97.5 91.5t136.5 46q13 112 121 176t309 70v-213z" />
    <glyph glyph-name="copyright" unicode="&#xa9;" horiz-adv-x="2122" 
d="M70 946q0 147 37 277.5t103.5 240.5t158.5 197t202 147.5t234.5 92.5t255.5 32t255.5 -32t234.5 -92.5t202 -147.5t158.5 -197t103.5 -240.5t37 -277.5q0 -148 -37 -279.5t-103.5 -241.5t-158.5 -197t-202 -148t-234.5 -93t-255.5 -32t-255.5 32t-234.5 93t-202 148
t-158.5 197t-103.5 241t-37 280zM1831 946q0 112 -27.5 213.5t-77.5 188.5t-120 157.5t-156 120t-184.5 76.5t-204.5 27q-107 0 -206 -27t-184.5 -76.5t-155.5 -120t-120 -157.5t-77 -188.5t-27 -213.5q0 -113 27 -214.5t77 -189t120 -158t155.5 -120.5t184 -77t206.5 -27
q107 0 205 27t184 77t156 120.5t120 158t77.5 189t27.5 214.5zM1577 770q-17 -98 -60.5 -175.5t-107 -131.5t-143 -82.5t-168.5 -28.5q-126 0 -229 45.5t-175.5 126t-112.5 189.5t-40 237q0 127 38 236.5t109.5 190t174 126t231.5 45.5q90 0 170.5 -27t143.5 -79t105 -128.5
t56 -174.5h-213q-11 44 -35 81t-59 63.5t-80 41t-97 14.5q-78 0 -138 -29.5t-101.5 -82t-62.5 -123.5t-21 -154q0 -81 23 -153t66 -125t104.5 -84t138.5 -31q105 0 175.5 55.5t86.5 157.5h221z" />
    <glyph glyph-name="registered" unicode="&#xae;" horiz-adv-x="2122" 
d="M70 946q0 147 37 277.5t103.5 240.5t158.5 197t202 147.5t234.5 92.5t255.5 32t255.5 -32t234.5 -92.5t202 -147.5t158.5 -197t103.5 -240.5t37 -277.5q0 -148 -37 -279.5t-103.5 -241.5t-158.5 -197t-202 -148t-234.5 -93t-255.5 -32t-255.5 32t-234.5 93t-202 148
t-158.5 197t-103.5 241t-37 280zM1831 946q0 112 -27.5 213.5t-77.5 188.5t-120 157.5t-156 120t-184.5 76.5t-204.5 27q-107 0 -206 -27t-184.5 -76.5t-155.5 -120t-120 -157.5t-77 -188.5t-27 -213.5q0 -113 27 -214.5t77 -189t120 -158t155.5 -120.5t184 -77t206.5 -27
q107 0 205 27t184 77t156 120.5t120 158t77.5 189t27.5 214.5zM1032 868h-176v-487h-188v1130h438q208 0 317 -77.5t109 -249.5q0 -77 -23 -132.5t-64 -92t-96.5 -56.5t-119.5 -26l323 -496h-225zM1090 1024q52 0 99.5 4.5t83.5 21.5t57.5 51.5t21.5 94.5q0 51 -23 81.5
t-58.5 47t-79 22t-85.5 5.5h-250v-328h234z" />
    <glyph glyph-name="trademark" unicode="&#x2122;" horiz-adv-x="2609" 
d="M467 1716h-328v172h877v-172h-328v-917h-221v917zM2200 1663h-5l-319 -864h-147l-320 864h-4v-864h-205v1089h307l295 -774l299 774h307v-1089h-208v864z" />
    <glyph glyph-name="multiply" unicode="&#xd7;" horiz-adv-x="1593" 
d="M188 1192l148 147l459 -462l462 462l148 -147l-463 -463l463 -459l-148 -147l-462 463l-459 -463l-148 147l463 459z" />
    <glyph glyph-name="divide" unicode="&#xf7;" horiz-adv-x="1692" 
d="M659 1286q0 37 15 70t41 58.5t60 40.5t73 15q37 0 70 -15t58.5 -40.5t40.5 -58.5t15 -70q0 -38 -15 -72.5t-40.5 -60t-58.5 -40.5t-70 -15q-39 0 -73 15t-60 40.5t-41 60t-15 72.5zM659 188q0 39 15 73t41 60t60 41t73 15q37 0 70 -15t58.5 -41t40.5 -60t15 -73
q0 -37 -15 -69.5t-40.5 -57t-58.5 -39t-70 -14.5q-39 0 -73 14.5t-60 39t-41 57t-15 69.5zM176 848h1340v-221h-1340v221z" />
    <glyph glyph-name="ZWSP" unicode="&#x200b;" 
 />
    <glyph glyph-name="yoyingthai" unicode="&#xe0d;" horiz-adv-x="2798" 
d="M2331 455q-46 -78 -103.5 -132t-120.5 -87.5t-129.5 -48.5t-130.5 -15q-123 0 -214 34.5t-152 107.5t-91 186t-30 270v164q0 104 -27 188t-82 143.5t-138 91.5t-195 32q-77 0 -150.5 -15.5t-138.5 -50t-120 -90t-95 -135.5q27 -15 53 -43.5t46 -70.5t32 -99.5t12 -130.5
v-537h221v-217h-491v791q0 64 -17 114t-43.5 86.5t-57.5 60.5t-58 38q40 106 112 201.5t174.5 168t233 115.5t287.5 43q147 0 277 -35t226.5 -114t152.5 -205.5t56 -309.5v-123q0 -101 10 -183t42 -139.5t91.5 -88.5t159.5 -31q72 0 129.5 21.5t101.5 58t75.5 86t52 105
t30 114.5t9.5 115v696h270v-1294q-3 -191 -52.5 -332t-139.5 -234t-218.5 -138.5t-289.5 -45.5q-72 0 -143.5 9.5t-138.5 30.5t-127 56t-108.5 86t-83.5 119.5t-51 157.5h287q18 -69 51.5 -116t79.5 -76t103.5 -41.5t125.5 -12.5q118 0 201 38.5t135 103.5t75.5 150
t23.5 179v230z" />
    <glyph glyph-name="sterling" unicode="&#xa3;" horiz-adv-x="1774" 
d="M115 979h168q-41 62 -63.5 146t-22.5 173q0 105 44 208t134.5 185.5t230.5 133.5t332 51q174 0 308 -41.5t226 -120.5t139.5 -192t47.5 -256h-283q-3 81 -31 152t-84 123.5t-141 83t-202 30.5q-102 0 -183.5 -29t-139.5 -81.5t-89 -126.5t-31 -165q0 -21 4.5 -52.5
t14.5 -68t26.5 -76t40.5 -77.5h557v-160h-495q21 -43 35 -95t14 -101q0 -48 -14.5 -101t-43 -104t-71 -96t-97.5 -76l5 -8q124 49 249 49q66 0 141 -13.5t145.5 -29.5l131 -29.5t99.5 -13.5q83 0 179 35t189 100l74 -230q-54 -41 -107.5 -69.5t-107.5 -45.5t-107.5 -24.5
t-107.5 -7.5q-74 0 -150.5 16t-155.5 35t-158.5 35t-158.5 16q-63 0 -119 -8t-103.5 -21.5t-84.5 -32.5t-61 -40l-123 217q70 42 124.5 87t91.5 97t56 111.5t19 130.5q0 50 -17.5 109t-48.5 108h-225v160z" />
    <glyph glyph-name="yen" unicode="&#xa5;" horiz-adv-x="1774" 
d="M1405 1835h340l-590 -905h373v-160h-479l-25 -37v-196h504v-156h-504v-381h-279v381h-499v156h499v196l-20 37h-479v160h372l-581 905h352l500 -860z" />
    <glyph glyph-name="cent" unicode="&#xa2;" horiz-adv-x="1774" 
d="M823 1208q-101 -14 -175 -58t-122.5 -112t-72 -156t-23.5 -190q0 -101 23.5 -189t72 -156t122.5 -112.5t175 -58.5v1032zM823 -41q-123 7 -220.5 40t-172 84.5t-127.5 119.5t-86.5 146.5t-49 163.5t-15.5 171q0 146 42 276t126 231t210 165t293 78v237h144v-237
q127 -8 238 -43.5t196.5 -99.5t142 -156t74.5 -213h-279q-24 126 -116.5 201.5t-255.5 84.5v-1032q157 13 248 92.5t128 239.5h283q-40 -146 -102 -248.5t-145 -167.5t-186 -97t-226 -36v-246h-144v246z" />
    <glyph glyph-name="Euro" unicode="&#x20ac;" horiz-adv-x="2298" 
d="M2167 639q-31 -141 -109.5 -265.5t-198 -217.5t-276 -147t-342.5 -54q-99 0 -200 16t-196.5 50.5t-183 89.5t-160 132t-126.5 178.5t-84 229.5h-209v201h180q-2 12 -2.5 24.5t-1 29t-0.5 39v54.5h-180v201h205q34 160 112.5 294.5t199.5 232t283 152t363 54.5
q87 0 182.5 -13.5t189.5 -44t183 -79.5t162.5 -120.5t128 -167t80.5 -218.5h-283q-24 85 -75.5 158.5t-129.5 127.5t-182.5 85t-234.5 31q-134 0 -247 -31t-201.5 -92.5t-150.5 -153.5t-94 -215h697v-201h-729v-63t0.5 -41t1 -26t2.5 -17h725v-201h-688q29 -95 83 -178
t136.5 -144.5t193.5 -96.5t254 -35q111 0 209.5 26t180 80t143 137.5t98.5 198.5h291z" />
    <glyph glyph-name="onequarter" unicode="&#xbc;" horiz-adv-x="2650" 
d="M2130 242h-606v168l639 700h172v-692h188v-176h-188v-242h-205v242zM2130 844h-4l-377 -426h381v426zM1585 1855h221l-1024 -1855h-213zM410 1552q-37 -20 -76 -31.5t-79.5 -17t-81.5 -7t-83 -1.5v156q79 0 135.5 10t95.5 26.5t62 38t36 44t17.5 45t5.5 40.5h185v-1110
h-217v807z" />
    <glyph glyph-name="onehalf" unicode="&#xbd;" horiz-adv-x="2650" 
d="M1589 1855h217l-1015 -1855h-218zM1610 717q0 84 27 156t83.5 124.5t145 82.5t211.5 30q114 0 197.5 -27.5t139 -74.5t82.5 -110.5t27 -135.5q0 -68 -21 -121.5t-56.5 -96t-83 -76t-99.5 -61.5t-106 -53t-104 -51t-91.5 -55t-69.5 -64h631v-184h-950q4 96 38 167
t86.5 124.5t118 93t133 72l132 62.5t114.5 64.5t80.5 77.5t30.5 101q0 46 -19.5 79.5t-51.5 55t-74 31.5t-88 10q-65 0 -112.5 -18t-79.5 -48t-48.5 -70t-17.5 -85h-205zM414 1552q-37 -20 -76.5 -31.5t-81 -17t-83 -7t-83.5 -1.5v156q80 0 137 10t95.5 26.5t62 38t36 44
t16.5 45t5 40.5h185v-1110h-213v807z" />
    <glyph glyph-name="threequarters" unicode="&#xbe;" horiz-adv-x="2650" 
d="M2130 242h-602v168l635 700h172v-692h188v-176h-188v-242h-205v242zM2130 844h-4l-377 -426h381v426zM479 1397h115q101 0 146.5 41.5t45.5 109.5q0 43 -18.5 69.5t-49 41t-70.5 19.5t-83 5q-63 0 -106 -11.5t-70.5 -35t-40.5 -58.5t-16 -83h-205q3 94 37.5 162t93 112
t138 65t173.5 21q115 0 198.5 -25.5t136.5 -67t78.5 -95.5t25.5 -111q0 -38 -10.5 -74.5t-32.5 -67t-56 -52.5t-82 -31v-4q51 -9 93.5 -32t72.5 -55.5t47 -73t17 -85.5q0 -32 -6 -71t-23 -79.5t-48.5 -79t-82.5 -68.5t-124.5 -48t-174.5 -18q-29 0 -77.5 1.5t-105 12
t-114.5 32.5t-105 63t-76.5 104t-29.5 155h209q3 -63 23.5 -101.5t56 -59.5t86 -28t113.5 -7q135 0 196.5 44t61.5 124q0 43 -18 77t-51.5 58t-81 36.5t-107.5 12.5q-44 0 -65 -2t-34 -2v160zM1761 1855h221l-1019 -1855h-218z" />
    <glyph glyph-name="saraamleft" horiz-adv-x="1491" 
d="M57 1098q0 83 25 154t69 128.5t104 102t129 74.5t144.5 45.5t151.5 15.5q124 0 235.5 -34.5t195.5 -102.5t133.5 -170.5t49.5 -237.5v-1073h-270v1020q0 92 -25.5 161.5t-71 115.5t-109 69t-138.5 23q-68 0 -127.5 -20t-105 -58t-73 -92t-30.5 -121h-287zM-1253 2130
q0 63 23.5 118t65 96.5t96.5 65t118 23.5q61 0 116.5 -23.5t96.5 -65t65.5 -96.5t24.5 -118t-24.5 -118t-65.5 -96.5t-96.5 -65t-116.5 -23.5q-63 0 -118 23.5t-96.5 65t-65 96.5t-23.5 118zM-1061 2130q0 -21 8.5 -41t23.5 -35.5t35.5 -25t43.5 -9.5t43 9.5t35 25
t23.5 35.5t8.5 41q0 23 -8.5 43t-23.5 35t-35 24t-43 9t-43.5 -9t-35.5 -24t-23.5 -35t-8.5 -43z" />
    <glyph glyph-name="uni0E33.alt1" horiz-adv-x="1491" 
d="M57 1098q0 83 25 154t69 128.5t104 102t129 74.5t144.5 45.5t151.5 15.5q124 0 235.5 -34.5t195.5 -102.5t133.5 -170.5t49.5 -237.5v-1073h-270v1020q0 92 -25.5 161.5t-71 115.5t-109 69t-138.5 23q-68 0 -127.5 -20t-105 -58t-73 -92t-30.5 -121h-287zM-1253 2130
q0 63 23.5 118t65 96.5t96.5 65t118 23.5q61 0 116.5 -23.5t96.5 -65t65.5 -96.5t24.5 -118t-24.5 -118t-65.5 -96.5t-96.5 -65t-116.5 -23.5q-63 0 -118 23.5t-96.5 65t-65 96.5t-23.5 118zM-1061 2130q0 -21 8.5 -41t23.5 -35.5t35.5 -25t43.5 -9.5t43 9.5t35 25
t23.5 35.5t8.5 41q0 23 -8.5 43t-23.5 35t-35 24t-43 9t-43.5 -9t-35.5 -24t-23.5 -35t-8.5 -43z" />
    <glyph glyph-name="guillemotleft" unicode="&#xab;" horiz-adv-x="1479" 
d="M795 872l475 353v-271l-316 -217l316 -221v-270l-475 352v274zM209 872l475 353v-271l-315 -217l315 -221v-270l-475 352v274z" />
    <glyph glyph-name="guillemotright" unicode="&#xbb;" horiz-adv-x="1479" 
d="M209 954v271l475 -353v-274l-475 -352v270l315 221zM795 954v271l475 -353v-274l-475 -352v270l311 221z" />
    <glyph glyph-name="thothannobasethai" unicode="&#xf700;" horiz-adv-x="1753" 
d="M1634 1073q-2 -106 -39.5 -227.5t-103 -256.5t-153.5 -283l-191 -306h-361l-385 713h-221v217h414l377 -705l133 221t118.5 221.5t84.5 206.5t32 175q0 87 -40 153t-105.5 110.5t-149.5 66.5t-172 22q-78 0 -154 -14.5t-140 -47.5t-111.5 -85.5t-69.5 -127.5h-299
q23 129 97 222t182 153t243 88.5t281 28.5q74 0 161.5 -12.5t174.5 -40.5q35 7 60.5 24t42.5 39.5t25.5 48.5t10.5 52h299q-2 -40 -13 -83t-34.5 -83t-60 -74t-88.5 -55q71 -62 113 -151t42 -210z" />
    <glyph glyph-name="exclam" unicode="!" horiz-adv-x="889" 
d="M283 307h323v-307h-323v307zM299 1393v495h295v-495l-70 -897h-155z" />
    <glyph glyph-name="quotedbl" unicode="&#x22;" horiz-adv-x="1282" 
d="M782 1888h222v-712h-222v712zM274 1888h226v-712h-226v712z" />
    <glyph glyph-name="numbersign" unicode="#" horiz-adv-x="1774" 
d="M1069 1110h-311l-53 -385h315zM569 1110h-250v176h275l78 549h188l-78 -549h312l73 549h193l-78 -549h246v-176h-271l-53 -385h246v-176h-270l-78 -549h-184l73 549h-311l-78 -549h-184l74 549h-246v176h274z" />
    <glyph glyph-name="dollar" unicode="$" horiz-adv-x="1774" 
d="M369 545q2 -33 10 -70.5t26 -76t48.5 -75t76.5 -66.5t110.5 -51.5t150.5 -29.5v651q-77 13 -155 31t-150.5 44.5t-136 64t-110 91t-73.5 125t-27 165.5q0 93 26.5 167.5t72.5 132.5t108.5 100.5t135 70t151.5 41.5t158 16v238h167v-238q165 -5 285.5 -45t201.5 -108
t124.5 -159.5t52.5 -199.5h-262q-9 69 -41.5 121.5t-84 88.5t-121.5 56t-155 25v-598q187 -32 322 -76t222 -107.5t128 -152t41 -209.5q0 -96 -27.5 -174t-77 -138.5t-116.5 -105t-146.5 -74t-167.5 -44.5t-178 -17v-238h-167v238q-93 2 -180 20t-163.5 51.5t-139.5 83
t-108.5 114t-71 144t-26.5 173.5h267zM1409 479q0 64 -24.5 115.5t-78 90.5t-139.5 67.5t-209 46.5v-623q114 1 198.5 26.5t141 66.5t84 95.5t27.5 114.5zM401 1368q0 -118 100.5 -193.5t289.5 -97.5v574q-91 -6 -163 -26.5t-122.5 -55.5t-77.5 -85t-27 -116z" />
    <glyph glyph-name="percent" unicode="%" horiz-adv-x="2650" 
d="M2269 471q0 170 -66.5 255t-187.5 85t-185.5 -85t-64.5 -255t64.5 -255t185.5 -85t187.5 85t66.5 255zM1741 1876h221l-1049 -1917h-221zM885 1364q0 167 -63 253.5t-187 86.5q-121 0 -185.5 -86.5t-64.5 -253.5q0 -170 64.5 -257t185.5 -87q124 0 187 87t63 257z
M1544 471q0 114 28 208.5t86 163t147 106.5t210 38t210.5 -38t148.5 -106.5t87.5 -163t28.5 -208.5q0 -112 -28.5 -206t-87.5 -162t-148.5 -106t-210.5 -38t-210 38t-147 106t-86 162t-28 206zM164 1364q0 112 28.5 206t87 162t147 106t208.5 38q121 0 210 -38t147 -106
t86 -162t28 -206q0 -114 -28 -208.5t-86 -163t-147 -106.5t-210 -38q-120 0 -208.5 38t-147 106.5t-87 163t-28.5 208.5z" />
    <glyph glyph-name="ampersand" unicode="&#x26;" horiz-adv-x="2163" 
d="M1622 213q-54 -66 -128 -114.5t-161 -80.5t-183.5 -47.5t-195.5 -15.5q-142 0 -253 24t-194 65t-140.5 96t-93.5 117.5t-52 128.5t-16 130q0 88 27 169.5t86.5 153.5t152.5 133t225 109q-62 55 -101.5 107t-62 99.5t-31.5 91t-9 83.5q0 95 32.5 173.5t94.5 134.5
t152.5 87t207.5 31q112 0 201 -32.5t150.5 -88t94.5 -130t33 -158.5q0 -56 -18 -115.5t-60 -118t-112 -112.5t-174 -97l495 -458q22 32 37 63t25.5 65.5t16.5 74.5t11 91h250q-3 -111 -37.5 -226.5t-117.5 -235.5l446 -410h-369zM741 1475q0 -36 12.5 -69t37 -68t61.5 -73.5
t86 -84.5q74 31 125.5 65.5t83.5 71t46.5 73.5t14.5 72q0 42 -16.5 78.5t-46.5 63.5t-71.5 43t-90.5 16q-63 0 -108.5 -15.5t-75.5 -41.5t-44 -60t-14 -71zM848 930q-111 -46 -181.5 -94.5t-111.5 -99t-56.5 -104t-15.5 -108.5q0 -38 10 -78.5t32.5 -79t59 -73t90 -60.5
t125 -41.5t163.5 -15.5q70 0 139 9.5t131.5 31.5t116.5 59t96 93z" />
    <glyph glyph-name="quotesingle" unicode="'" horiz-adv-x="889" 
d="M332 1888h225v-712h-225v712z" />
    <glyph glyph-name="parenleft" unicode="(" horiz-adv-x="1085" 
d="M803 -504q-264 274 -396.5 570.5t-132.5 625.5q0 328 132.5 624t396.5 572h196q-60 -63 -118 -142t-109 -170.5t-94.5 -194.5t-74.5 -215t-48.5 -231t-17.5 -243q0 -186 38.5 -359.5t102.5 -327.5t147.5 -283t173.5 -226h-196z" />
    <glyph glyph-name="parenright" unicode=")" horiz-adv-x="1085" 
d="M82 -504q91 97 174.5 226t147.5 283t102.5 327.5t38.5 359.5t-38.5 360.5t-102.5 328.5t-147.5 283t-174.5 224h201q264 -276 396 -572t132 -624q0 -329 -132 -625.5t-396 -570.5h-201z" />
    <glyph glyph-name="asterisk" unicode="*" horiz-adv-x="1233" 
d="M123 1507l78 172l319 -127v336h189v-336l327 127l70 -172l-340 -135l258 -254l-143 -119l-267 275l-258 -275l-135 119l242 254z" />
    <glyph glyph-name="plus" unicode="+" horiz-adv-x="1692" 
d="M733 1409h225v-561h558v-221h-558v-557h-225v557h-557v221h557v561z" />
    <glyph glyph-name="comma" unicode="," horiz-adv-x="889" 
d="M283 -274q40 10 68.5 29.5t47.5 52t29.5 79.5t13.5 113h-159v307h323v-270q0 -78 -17 -151.5t-55.5 -132.5t-100 -100t-150.5 -54v127z" />
    <glyph glyph-name="hyphen" unicode="-" horiz-adv-x="1528" 
d="M176 848h1176v-221h-1176v221z" />
    <glyph glyph-name="period" unicode="." horiz-adv-x="889" 
d="M283 307h323v-307h-323v307z" />
    <glyph glyph-name="slash" unicode="/" horiz-adv-x="1081" 
d="M827 1933h250l-827 -1978h-246z" />
    <glyph glyph-name="zero" unicode="0" horiz-adv-x="1790" 
d="M119 918q0 131 17 253t54.5 228.5t97 194t145 150.5t198.5 97.5t258 34.5t259 -34.5t200.5 -97.5t147 -150.5t98.5 -194t55.5 -228.5t17.5 -253q0 -132 -17.5 -254.5t-55.5 -229t-98.5 -194t-147 -150t-200.5 -97t-259 -34.5q-144 0 -257.5 34.5t-199 97t-145 150
t-97 194t-54.5 229t-17 254.5zM1384 918q0 55 -5 131t-22.5 158t-50 162.5t-87.5 144t-136 102.5t-194 39q-85 0 -151 -22.5t-116.5 -61.5t-86.5 -91t-61 -110.5t-40 -121t-23.5 -122t-11 -113.5t-2.5 -95q0 -42 2.5 -96t11 -114t23.5 -122.5t40 -121.5t61 -111.5
t86.5 -91.5t116.5 -62t151 -23t151.5 23t117.5 62t87.5 91.5t61.5 111.5t40 121.5t23.5 122.5t11 114t2.5 96z" />
    <glyph glyph-name="one" unicode="1" horiz-adv-x="1790" 
d="M860 1393q-60 -32 -128 -51t-139 -28t-142.5 -11t-139.5 0v204q132 0 227.5 17.5t162 46t107.5 65t64.5 75t33 76t12.5 68.5h221v-1855h-279v1393z" />
    <glyph glyph-name="two" unicode="2" horiz-adv-x="1790" 
d="M180 1212q0 146 44.5 268t135.5 210t230 137t328 49q178 0 309.5 -45t218.5 -123.5t129.5 -186t42.5 -231.5q0 -97 -26 -175t-71 -141.5t-106 -114.5t-132 -94.5t-148 -81l-154.5 -74l-151.5 -74t-138 -81t-115.5 -94.5t-83.5 -114h1126v-246h-1466q7 129 45 230.5
t97.5 182.5t135.5 144t161 114.5t173 95l171 85.5t156.5 85.5t128.5 95t87 114.5t32 143q0 100 -33 169.5t-88.5 113t-129 63t-154.5 19.5q-125 0 -215.5 -33t-150 -92t-89.5 -140t-33 -178h-266z" />
    <glyph glyph-name="three" unicode="3" horiz-adv-x="1790" 
d="M741 1085q14 -2 29 -2.5t35.5 -1t48.5 -0.5h68q87 0 155 18.5t114.5 54t70.5 85.5t24 113q0 87 -36 145.5t-93.5 93.5t-131 49.5t-148.5 14.5q-106 0 -185 -26.5t-132.5 -76t-82.5 -121t-35 -161.5h-262q9 157 65 271t149 188.5t218.5 110.5t272.5 36q178 0 307 -42.5
t213 -113t124 -161t40 -187.5q0 -63 -16.5 -123.5t-50 -111t-85.5 -88t-123 -54.5v-8q78 -14 144 -51.5t113 -94.5t73.5 -132t26.5 -164q0 -119 -43.5 -225t-133.5 -186.5t-227.5 -127.5t-324.5 -47q-33 0 -84.5 1t-113 8.5t-129 23.5t-133 45t-125 74t-104.5 111
t-71.5 154.5t-26.5 205.5h262q6 -117 46 -195t106 -125t154.5 -66.5t193.5 -19.5q112 0 200.5 25.5t149.5 72t93 111.5t32 143q0 80 -36.5 142t-100 104t-150.5 64t-188 22q-35 0 -60 -0.5t-42.5 -1.5t-30 -1.5t-23.5 -0.5v229z" />
    <glyph glyph-name="four" unicode="4" horiz-adv-x="1790" 
d="M1094 1483h-4l-713 -815h717v815zM1094 446h-979v242l1007 1167h234v-1187h327v-222h-327v-446h-262v446z" />
    <glyph glyph-name="five" unicode="5" horiz-adv-x="1790" 
d="M369 1855h1142v-245h-946l-86 -520q99 68 215.5 101.5t243.5 33.5q78 0 161 -12t162 -40.5t150 -75t124.5 -115t84.5 -160.5t31 -212q0 -147 -55 -267.5t-156 -205.5t-245.5 -131.5t-322.5 -46.5q-161 0 -293.5 40.5t-228 112t-150.5 169t-61 211.5h271q23 -85 62 -145
t97.5 -98t138.5 -55.5t185 -17.5q58 0 116.5 8.5t111.5 28t99 51.5t79.5 79t53 110t19.5 145q0 106 -38 183t-102.5 126.5t-150 73t-180.5 23.5q-63 0 -126 -10t-121.5 -31t-109.5 -54.5t-89 -81.5l-254 17z" />
    <glyph glyph-name="six" unicode="6" horiz-adv-x="1790" 
d="M1393 594q0 83 -28.5 158t-87 132t-147 90.5t-208.5 33.5t-208.5 -33.5t-147 -90.5t-87 -132t-28.5 -158q0 -84 28.5 -160t87 -133.5t147 -91t208.5 -33.5t208.5 33.5t147 91t87 133.5t28.5 160zM1343 1401q-11 64 -45 112t-84.5 79.5t-114 47t-132.5 15.5
q-75 0 -143.5 -12t-128.5 -41t-110.5 -78.5t-88.5 -124t-62.5 -177.5t-32.5 -239h9q26 45 77 89t121.5 79t158 56.5t187.5 21.5q81 0 165.5 -13t164.5 -43t150 -78.5t123 -118.5t83.5 -163.5t30.5 -214.5q0 -70 -18 -144.5t-56 -145.5t-96.5 -134.5t-140.5 -111t-188 -75.5
t-238 -28q-210 0 -360.5 63t-247 181.5t-142 289.5t-45.5 388q0 180 26 319t70.5 242.5t104 176t126.5 120.5t138.5 75.5t139.5 41t129.5 17t109.5 3.5q55 0 119.5 -8.5t130 -29t128.5 -55.5t114 -88t87 -125.5t48 -168.5h-267z" />
    <glyph glyph-name="seven" unicode="7" horiz-adv-x="1790" 
d="M160 1855h1442v-233q-149 -188 -274.5 -376t-226 -386t-176 -410.5t-126.5 -449.5h-291q54 218 138.5 435.5t192.5 423t235 393t265 345.5h-1179v258z" />
    <glyph glyph-name="eight" unicode="8" horiz-adv-x="1790" 
d="M127 545q0 77 21 139t54 111t75 85.5t84.5 62t81 40.5t65.5 21v4q-81 31 -137.5 69.5t-91.5 86t-50.5 104.5t-15.5 125q0 117 47 207t135.5 151.5t215 93t286.5 31.5q158 0 285 -31.5t215.5 -93t136 -151.5t47.5 -207q0 -129 -73.5 -229.5t-221.5 -155.5v-4
q83 -15 152 -53t119 -96.5t78 -136.5t28 -173q0 -57 -13.5 -123t-47 -131t-89.5 -125t-141.5 -106t-203.5 -73.5t-275 -27.5q-155 0 -272 27.5t-202 73.5t-141 106t-89.5 125t-47.5 130.5t-14 123.5zM1303 1380q0 49 -25 98t-75.5 88.5t-126.5 64t-179 24.5t-179 -24.5
t-126.5 -64t-75 -88.5t-24.5 -98q0 -52 24.5 -102t75 -89t126.5 -63t179 -24t179 24t126.5 63t75.5 89t25 102zM1384 528q0 72 -27 136.5t-86.5 112.5t-152.5 76t-225 28q-129 0 -221 -28t-151.5 -76t-87 -112.5t-27.5 -136.5q0 -69 27.5 -132.5t87 -112.5t151.5 -78
t221 -29q132 0 225 29t152.5 78t86.5 112.5t27 132.5z" />
    <glyph glyph-name="nine" unicode="9" horiz-adv-x="1790" 
d="M1339 1241q0 84 -28 159.5t-86 132t-147 89.5t-210 33q-120 0 -208.5 -33t-147 -89.5t-87 -132t-28.5 -159.5q0 -83 28.5 -158t87 -132t147 -90.5t208.5 -33.5q121 0 210 33.5t147 90.5t86 132t28 158zM446 434q11 -65 46 -113t86 -80.5t114 -48.5t131 -16q112 0 210 29
t173 104.5t123 207t60 335.5h-5q-27 -45 -79 -89t-123.5 -79t-160 -56.5t-190.5 -21.5q-79 0 -162 13t-162.5 43t-150 78.5t-123 118.5t-83.5 163.5t-31 214.5q0 68 18 142t56 145t97 135t141.5 112t189 76.5t239.5 28.5q209 0 358.5 -63t245.5 -181.5t141.5 -289.5
t45.5 -388q0 -180 -26 -319t-70.5 -242.5t-103.5 -176t-126 -120.5t-138 -75.5t-139 -41t-129 -17t-108 -3.5q-56 0 -121 8.5t-130.5 29t-128 55.5t-113.5 88t-86.5 125.5t-47.5 168.5h262z" />
    <glyph glyph-name="colon" unicode=":" horiz-adv-x="889" 
d="M283 1364h323v-307h-323v307zM283 307h323v-307h-323v307z" />
    <glyph glyph-name="semicolon" unicode=";" horiz-adv-x="889" 
d="M283 307h323v-270q0 -78 -17 -151.5t-55.5 -132.5t-100 -100t-150.5 -54v127q40 10 68.5 29.5t47.5 52t29.5 79.5t13.5 113h-159v307zM283 1364h323v-307h-323v307z" />
    <glyph glyph-name="less" unicode="&#x3c;" horiz-adv-x="1593" 
d="M127 803l1339 602v-225l-1069 -471l1069 -471v-222l-1339 598v189z" />
    <glyph glyph-name="equal" unicode="=" horiz-adv-x="1692" 
d="M176 1126h1340v-225h-1340v225zM176 573h1340v-221h-1340v221z" />
    <glyph glyph-name="greater" unicode="&#x3e;" horiz-adv-x="1593" 
d="M127 1180v225l1339 -602v-189l-1339 -598v222l1065 471z" />
    <glyph glyph-name="question" unicode="?" horiz-adv-x="1774" 
d="M160 1303q5 128 40 224.5t90.5 166.5t127 116t150 73.5t159 38.5t154.5 11q133 0 253.5 -36t211.5 -107t144.5 -178t53.5 -248q0 -91 -26 -162t-68.5 -128t-97 -104t-111.5 -89l-111.5 -83t-97 -86t-68.5 -97.5t-26 -118.5h-250q0 98 25 171.5t65.5 130.5t92.5 100.5
t106 82.5l106 76.5t92.5 82t65.5 99.5t25 129q0 92 -31.5 158t-86 108t-127 62t-153.5 20q-97 0 -177 -27.5t-138.5 -80.5t-92.5 -130t-38 -175h-262zM651 307h324v-307h-324v307z" />
    <glyph glyph-name="at" unicode="@" horiz-adv-x="2122" 
d="M1327 1053q0 51 -16.5 97t-46 81t-69 55.5t-85.5 20.5q-55 0 -104.5 -22t-91.5 -60t-75.5 -87.5t-57 -105t-36 -112.5t-12.5 -109q0 -59 16 -107.5t45.5 -84t70 -55t89.5 -19.5q53 0 101.5 23.5t90 63t75 91t57 108t36.5 114t13 108.5zM1458 1454h193l-205 -717
q-6 -34 -17.5 -69t-11.5 -66q0 -25 15.5 -41t46.5 -16q45 0 90 20.5t86.5 57.5t77 88t62 111.5t41.5 128.5t15 139q0 106 -26.5 198.5t-75.5 169t-117.5 136t-151.5 100.5t-179 62.5t-199 21.5q-122 0 -230 -30t-198.5 -85t-162 -131.5t-121.5 -170t-76.5 -200.5t-26.5 -223
q0 -119 29 -226.5t82 -199t128.5 -166t169 -126.5t202 -80.5t228.5 -28.5q91 0 177.5 21t165 59.5t147.5 91.5t125 118h196q-66 -106 -155 -189t-194.5 -140t-224.5 -87t-245 -30q-144 0 -276 34.5t-245 98t-205.5 153t-157.5 200t-100.5 239.5t-35.5 270q0 138 36 264.5
t101.5 236t157 198.5t203 152t240 97.5t266.5 34.5q124 0 240 -26.5t218.5 -76t187.5 -121.5t146 -162t95 -197t34 -228q0 -125 -32 -230t-85.5 -190t-121.5 -150t-140 -108.5t-142 -65.5t-126 -22q-32 0 -61 9.5t-51.5 29t-36 50t-15.5 71.5h-4q-27 -32 -62 -61t-74.5 -51
t-82.5 -35t-88 -13q-86 0 -158 34.5t-124.5 93.5t-81.5 138.5t-29 168.5q0 87 19 173.5t54.5 165t87.5 146t117.5 117t144 78t167.5 28.5q102 0 180 -45.5t131 -150.5z" />
    <glyph glyph-name="A" unicode="A" horiz-adv-x="1999" 
d="M987 1630l-344 -835h700zM1446 549h-914l-237 -549h-303l856 1888h307l852 -1888h-324z" />
    <glyph glyph-name="B" unicode="B" horiz-adv-x="2060" 
d="M213 1888h1032q152 0 262 -32t181 -93t105 -149.5t34 -200.5q0 -86 -21 -150.5t-58 -112.5t-87.5 -80.5t-108.5 -53.5v-4q81 -20 147 -57.5t112.5 -95t72 -135.5t25.5 -179q0 -102 -35.5 -199.5t-109 -174.5t-186 -124t-267.5 -47h-1098v1888zM1237 1106q78 0 136.5 21
t97.5 57t58 84.5t19 103.5q0 64 -18.5 115.5t-57.5 86.5t-100 54t-147 19h-733v-541h745zM1237 246q117 0 193 26.5t120.5 71t62 101t17.5 116.5q0 57 -18 111.5t-61 97t-114.5 68.5t-179.5 26h-765v-618h745z" />
    <glyph glyph-name="C" unicode="C" horiz-adv-x="2154" 
d="M2019 639q-31 -141 -109.5 -265.5t-198 -217.5t-275.5 -147t-342 -54q-117 0 -235 22.5t-227.5 71.5t-204.5 127t-165 188.5t-110.5 256t-40.5 329.5q0 137 28.5 263.5t85 235.5t140 198.5t192.5 153t243.5 98t293.5 34.5q87 0 182.5 -13.5t189.5 -44t182.5 -79.5
t162.5 -120.5t128 -167t80 -218.5h-282q-25 85 -76.5 158.5t-129.5 127.5t-182.5 85t-234.5 31q-166 0 -300 -48t-228.5 -144t-145.5 -240.5t-51 -337.5q0 -90 17 -179t53 -169.5t92.5 -149.5t135 -119.5t181 -79t230.5 -28.5q111 0 209.5 26t179.5 80t143 137.5t99 198.5
h290z" />
    <glyph glyph-name="D" unicode="D" horiz-adv-x="2089" 
d="M213 1888h942q212 0 367 -66.5t256.5 -187.5t150.5 -290t49 -373q0 -131 -19.5 -254t-61.5 -231t-106.5 -197.5t-154.5 -153.5t-207 -99.5t-262 -35.5h-954v1888zM1159 246q114 0 198 30t144.5 82t99 122t60.5 149.5t30.5 165t8.5 168.5q0 84 -10.5 167t-36.5 159
t-69.5 141.5t-110 113.5t-158 75.5t-213.5 27.5h-610v-1401h667z" />
    <glyph glyph-name="E" unicode="E" horiz-adv-x="1868" 
d="M213 1888h1503v-241h-1224v-553h1183v-238h-1183v-610h1245v-246h-1524v1888z" />
    <glyph glyph-name="F" unicode="F" horiz-adv-x="1724" 
d="M213 1888h1446v-241h-1167v-557h1110v-246h-1110v-844h-279v1888z" />
    <glyph glyph-name="G" unicode="G" horiz-adv-x="2294" 
d="M1233 1020h864v-1020h-201l-49 270q-46 -55 -109 -111t-149.5 -101.5t-199.5 -74t-259 -28.5q-186 0 -331.5 42.5t-255.5 115t-186 168t-123.5 202t-69 217.5t-21.5 213q0 180 39.5 326t108 259t162.5 195.5t202.5 135.5t227.5 78.5t239 25.5q96 0 195 -11t194 -38.5
t182 -74.5t159.5 -118t127 -169t84.5 -228h-295q-34 98 -87.5 172.5t-130.5 124.5t-179.5 75.5t-232.5 25.5q-123 0 -224 -28.5t-180.5 -79.5t-138.5 -121.5t-97.5 -154.5t-57.5 -178t-19 -192q0 -198 59 -338.5t159.5 -230t232.5 -131t278 -41.5q150 0 274 43t214 119.5
t143.5 182.5t64.5 232h-614v246z" />
    <glyph glyph-name="H" unicode="H" horiz-adv-x="2253" 
d="M1761 885h-1269v-885h-279v1888h279v-758h1269v758h279v-1888h-279v885z" />
    <glyph glyph-name="I" unicode="I" horiz-adv-x="762" 
d="M242 1888h278v-1888h-278v1888z" />
    <glyph glyph-name="J" unicode="J" horiz-adv-x="1552" 
d="M344 643v-90q0 -95 26 -166t74.5 -118t118.5 -70t158 -23q172 0 262 97t90 276v1339h283v-1282q0 -184 -48 -309t-132 -201t-199 -108.5t-248 -32.5q-158 0 -267 33.5t-181 89t-112 127.5t-59.5 148.5t-23.5 151.5t-4 138h262z" />
    <glyph glyph-name="K" unicode="K" horiz-adv-x="2032" 
d="M831 922l-327 -308v-614h-283v1888h283v-950l1036 950h397l-897 -786l951 -1102h-389z" />
    <glyph glyph-name="L" unicode="L" horiz-adv-x="1667" 
d="M213 1888h283v-1642h1130v-246h-1413v1888z" />
    <glyph glyph-name="M" unicode="M" horiz-adv-x="2695" 
d="M2093 1888h389v-1888h-278v1565h-4l-730 -1565h-245l-729 1532h-4v-1532h-279v1888h389l746 -1569z" />
    <glyph glyph-name="N" unicode="N" horiz-adv-x="2236" 
d="M500 1503h-4v-1503h-283v1888h324l1200 -1503h4v1503h282v-1888h-323z" />
    <glyph glyph-name="O" unicode="O" horiz-adv-x="2294" 
d="M106 946q0 121 24.5 241t77 230t135 204t198 163.5t266 109t340.5 39.5q189 0 340 -39.5t266.5 -109t197.5 -163.5t134.5 -204t77 -230t24.5 -241q0 -122 -24.5 -242.5t-77 -230.5t-134.5 -205t-197.5 -164.5t-266.5 -109t-340 -39.5t-340 39.5t-266.5 109t-198 164.5
t-135 205t-77 230.5t-24.5 242.5zM1909 946q0 186 -58.5 326t-161 233t-242 140t-300.5 47t-300.5 -47t-242 -140t-161 -233t-58.5 -326q0 -188 58.5 -328t161 -234t242 -140.5t300.5 -46.5t300.5 46.5t242 140.5t161 234t58.5 328z" />
    <glyph glyph-name="P" unicode="P" horiz-adv-x="1901" 
d="M213 1888h958q313 0 472 -139.5t159 -400.5q0 -134 -39.5 -243.5t-117 -187.5t-192.5 -120.5t-265 -42.5h-692v-754h-283v1888zM1155 999q105 0 175.5 26.5t113.5 73t61.5 108t18.5 132.5q0 68 -20 124.5t-60 97.5t-100 63.5t-140 22.5h-708v-648h659z" />
    <glyph glyph-name="Q" unicode="Q" horiz-adv-x="2294" 
d="M1655 53q-105 -49 -229 -73.5t-279 -24.5q-189 0 -340 39.5t-266.5 109t-198 164.5t-135 205t-77 230.5t-24.5 242.5q0 121 24.5 241t77 230t135 204t198 163.5t266 109t340.5 39.5q189 0 340 -39.5t266.5 -109t197.5 -163.5t134.5 -204t77 -230t24.5 -241
q0 -106 -19 -211t-58.5 -203.5t-100.5 -187t-145 -160.5l241 -204l-147 -185zM1241 401l148 181l266 -226q58 46 105 106t80 134t51 161.5t18 188.5q0 186 -58.5 326t-161 233t-242 140t-300.5 47t-300.5 -47t-242 -140t-161 -233t-58.5 -326q0 -188 58.5 -328t161 -234
t242 -140.5t300.5 -46.5q77 0 148 10t143 35z" />
    <glyph glyph-name="R" unicode="R" horiz-adv-x="2077" 
d="M213 1888h1155q141 0 239 -44.5t158.5 -116.5t87.5 -162t27 -181q0 -172 -79 -292.5t-236 -169.5v-9q61 -9 110.5 -41t85 -83.5t55.5 -120.5t23 -152q8 -132 14.5 -218.5t16 -143.5t24.5 -91.5t39 -62.5h-299q-17 20 -26.5 46.5t-14.5 67.5t-8.5 100.5t-7.5 145.5
q-8 126 -33 211t-69.5 136.5t-109.5 73.5t-153 22h-716v-803h-283v1888zM1262 1044q103 0 169 28.5t104 72t52.5 96.5t14.5 102q0 66 -20 122t-61.5 96.5t-104 63t-146.5 22.5h-774v-603h766z" />
    <glyph glyph-name="S" unicode="S" horiz-adv-x="1810" 
d="M352 623q2 -85 28 -149.5t69 -112t101 -79t124.5 -50.5t137.5 -27t142 -8q114 0 207 21t159 61.5t102 100t36 136.5q0 64 -24.5 111t-70 80t-111 55t-146.5 37l-410 69q-56 9 -119.5 24t-126 39t-119.5 60.5t-100.5 88.5t-69.5 122t-26 162q0 129 48.5 234t143 179.5
t233.5 115t321 40.5q95 0 189.5 -12.5t180.5 -40.5t161 -73t132 -110.5t92.5 -153t42.5 -200.5h-278q-7 37 -19.5 77t-36.5 79t-63 74t-98.5 61.5t-143 42t-196.5 15.5q-78 0 -155 -17t-138 -54.5t-99 -96.5t-38 -144q0 -43 15 -81.5t50.5 -70.5t94.5 -56t147 -37l450 -78
q37 -7 93.5 -19.5t120 -34.5t127 -56t114.5 -85.5t83 -122.5t32 -166q0 -121 -33.5 -213.5t-91 -161.5t-136 -115.5t-168 -75t-186.5 -40.5t-192 -12q-106 0 -211.5 13.5t-201 44t-177.5 81t-142 124.5t-94 174.5t-34 230.5h278z" />
    <glyph glyph-name="T" unicode="T" horiz-adv-x="1716" 
d="M717 1647h-705v241h1692v-241h-709v-1647h-278v1647z" />
    <glyph glyph-name="U" unicode="U" horiz-adv-x="2118" 
d="M213 1888h283v-1208q0 -129 39.5 -220.5t112.5 -150t177.5 -85.5t235.5 -27q129 0 233.5 27t178 85.5t113.5 150t40 220.5v1208h279v-1175q0 -378 -207 -568t-637 -190q-431 0 -639.5 190t-208.5 568v1175z" />
    <glyph glyph-name="V" unicode="V" horiz-adv-x="1974" 
d="M1663 1888h303l-823 -1888h-295l-840 1888h320l671 -1597z" />
    <glyph glyph-name="W" unicode="W" horiz-adv-x="2929" 
d="M1458 1565h-4l-520 -1565h-311l-615 1888h307l476 -1532h4l508 1532h331l516 -1532h9l471 1532h290l-630 -1888h-308z" />
    <glyph glyph-name="X" unicode="X" horiz-adv-x="1864" 
d="M1483 1888h348l-721 -921l741 -967h-368l-561 762l-562 -762h-348l733 967l-700 921h356l537 -729z" />
    <glyph glyph-name="Y" unicode="Y" horiz-adv-x="1942" 
d="M1593 1888h340l-823 -1097v-791h-279v778l-823 1110h357l610 -860z" />
    <glyph glyph-name="Z" unicode="Z" horiz-adv-x="1925" 
d="M102 250l1336 1397h-1241v241h1605v-241l-1339 -1401h1360v-246h-1721v250z" />
    <glyph glyph-name="bracketleft" unicode="[" horiz-adv-x="1085" 
d="M315 1888h603v-209h-357v-1974h357v-209h-603v2392z" />
    <glyph glyph-name="backslash" unicode="\" horiz-adv-x="1081" 
d="M4 1933h246l827 -1978h-250z" />
    <glyph glyph-name="bracketright" unicode="]" horiz-adv-x="1085" 
d="M524 1679h-356v209h602v-2392h-602v209h356v1974z" />
    <glyph glyph-name="asciicircum" unicode="^" horiz-adv-x="1602" 
d="M803 1614l-422 -877h-221l536 1098h201l549 -1098h-225z" />
    <glyph glyph-name="underscore" unicode="_" horiz-adv-x="1323" 
d="M4 -197h1319v-163h-1319v163z" />
    <glyph glyph-name="grave" unicode="`" horiz-adv-x="598" 
d="M-102 1958h331l230 -373h-213z" />
    <glyph glyph-name="a" unicode="a" horiz-adv-x="1765" 
d="M193 950q12 130 61 222t134 150.5t206.5 85t277.5 26.5q71 0 145 -6.5t143.5 -23.5t131 -46t107.5 -73t73 -105.5t27 -143.5v-741q0 -62 30 -90.5t89 -28.5q22 0 47 1t47 7v-184q-49 -9 -103.5 -12.5t-101.5 -3.5q-51 0 -92 8t-71.5 29.5t-50.5 58.5t-27 96
q-39 -52 -101.5 -93t-139 -69.5t-161.5 -43.5t-168 -15q-116 0 -202.5 18t-149.5 49t-104 72.5t-65.5 88t-34 95.5t-9.5 95q0 94 30 166t99.5 124.5t183.5 87t281 52.5l287 28q55 6 99.5 16t76 28.5t48.5 48t17 75.5q0 71 -31.5 115.5t-85 70t-125 35t-151.5 9.5
q-86 0 -161.5 -13.5t-132.5 -46t-91 -86t-37 -133.5h-245zM1253 725q-15 -17 -37 -31t-53.5 -25.5t-74 -21t-97.5 -16.5l-282 -29q-77 -8 -135.5 -23t-97.5 -41.5t-59 -64.5t-20 -92q0 -51 23 -91.5t65 -69.5t101 -44.5t131 -15.5q112 0 210 28t170.5 78.5t114 121.5
t41.5 157v180z" />
    <glyph glyph-name="b" unicode="b" horiz-adv-x="1851" 
d="M193 1888h262v-712h4q40 63 96.5 108.5t124.5 75t144.5 43.5t154.5 14q157 0 293 -49t236.5 -142.5t158 -230t57.5 -311.5q0 -174 -57.5 -309.5t-158 -228.5t-236.5 -142t-293 -49q-77 0 -153.5 14.5t-145 42.5t-126 69t-95.5 95h-4v-176h-262v1888zM1446 684
q0 120 -35 215t-100.5 161t-158.5 101t-210 35t-210 -35t-158.5 -101t-100.5 -161t-35 -215q0 -98 28 -190t89 -162.5t156.5 -113t230.5 -42.5t231 42.5t156.5 113t88.5 162.5t28 190z" />
    <glyph glyph-name="c" unicode="c" horiz-adv-x="1712" 
d="M1589 508q-40 -152 -107 -257.5t-158 -171t-204 -95t-243 -29.5q-135 0 -243 29.5t-191 81t-142 122t-97 151.5t-55.5 169t-17.5 176q0 152 46.5 288.5t139.5 239t232 162.5t323 60q137 0 258.5 -33t216.5 -97.5t157.5 -160t80.5 -221.5h-282q-9 64 -41.5 117.5t-85.5 92
t-124.5 59.5t-158.5 21q-128 0 -219 -41t-150 -111.5t-86.5 -165t-27.5 -202.5q0 -109 28 -203.5t87.5 -164t150.5 -109t217 -39.5q170 0 275.5 82.5t142.5 249.5h278z" />
    <glyph glyph-name="d" unicode="d" horiz-adv-x="1851" 
d="M1401 176h-4q-40 -54 -99.5 -95t-129 -69t-144.5 -42.5t-147 -14.5q-154 0 -289.5 49t-237 142t-160.5 228.5t-59 309.5q0 175 59 311.5t160.5 230t237 142.5t289.5 49q73 0 148 -14t144 -42t127.5 -70t100.5 -99h4v696h262v-1888h-262v176zM410 684q0 -98 28.5 -190
t89 -162.5t155 -113t226.5 -42.5t227.5 42.5t157 113t90.5 162.5t29 190q0 120 -36.5 215t-103 161t-159.5 101t-205 35t-204 -35t-157.5 -101t-101.5 -161t-36 -215z" />
    <glyph glyph-name="e" unicode="e" horiz-adv-x="1806" 
d="M410 610q7 -106 53.5 -187t116 -136t156 -83t173.5 -28q57 0 120.5 10.5t124 38.5t112.5 75.5t86 121.5h278q-49 -125 -127 -213.5t-172.5 -144.5t-199 -82.5t-205.5 -26.5q-203 0 -352.5 59.5t-248 160.5t-146.5 234.5t-48 282.5q0 99 21.5 193t64.5 176.5t108.5 151
t154 117.5t200 76.5t246.5 27.5q91 0 181.5 -19t173.5 -60t154 -105.5t123.5 -156t82.5 -211.5t30 -272h-1261zM1389 819q-15 95 -57 168.5t-104.5 123.5t-143.5 75.5t-175 25.5q-90 0 -172.5 -26.5t-148.5 -76.5t-111.5 -123t-62.5 -167h975z" />
    <glyph glyph-name="f" unicode="f" horiz-adv-x="926" 
d="M266 1556q0 97 28.5 163t83 106.5t134 58t180.5 17.5q59 0 110.5 -6t106.5 -15v-205l-69.5 5.5t-69.5 2.5q-63 0 -108.5 -5.5t-75.5 -20.5t-44 -41t-14 -68v-164h381v-204h-381v-1180h-262v1180h-274v204h274v172z" />
    <glyph glyph-name="g" unicode="g" horiz-adv-x="1851" 
d="M1413 1384h266v-1269q0 -186 -44.5 -318t-141 -216.5t-248 -123.5t-364.5 -39q-75 0 -151 5.5t-148.5 21.5t-137 45.5t-116 77t-87 116.5t-48.5 164h262q17 -66 54.5 -109.5t94.5 -69t133.5 -36t171.5 -10.5q140 0 236 33.5t155.5 91t86 133.5t26.5 160v205h-4
q-55 -80 -119.5 -130t-133.5 -78.5t-139 -39t-136 -10.5q-93 0 -185 17t-175.5 53t-154.5 92.5t-123.5 135.5t-82 182t-29.5 232t29.5 232.5t82 183t123.5 136.5t153.5 94t174 54t183.5 17q86 0 165.5 -14.5t148 -44t124.5 -74t94 -104.5h4v204zM1413 696q0 108 -33 199.5
t-97.5 158t-158.5 104.5t-215 38q-120 0 -212.5 -38t-156.5 -104.5t-97 -158t-33 -199.5q0 -106 33 -195t97 -154t156.5 -101.5t212.5 -36.5q121 0 215 36.5t158.5 101.5t97.5 154t33 195z" />
    <glyph glyph-name="h" unicode="h" horiz-adv-x="1761" 
d="M193 1888h262v-712h4q46 73 107.5 122.5t131 79.5t144.5 43t149 13q126 0 232 -28t183 -87t120 -151.5t43 -221.5v-946h-266v889q0 77 -22.5 137t-71 101.5t-124.5 63t-184 21.5q-91 0 -172 -26t-142 -78t-96.5 -129t-35.5 -180v-799h-262v1888z" />
    <glyph glyph-name="i" unicode="i" horiz-adv-x="709" 
d="M221 1384h266v-1384h-266v1384zM221 1888h266v-291h-266v291z" />
    <glyph glyph-name="j" unicode="j" horiz-adv-x="709" 
d="M-82 -307q25 -6 53 -7t49 -1q108 0 154.5 41t46.5 127v1531h266v-1470q0 -118 -22 -202.5t-73 -138.5t-135 -79.5t-208 -25.5q-31 0 -64 2t-67 2v221zM221 1888h266v-291h-266v291z" />
    <glyph glyph-name="k" unicode="k" horiz-adv-x="1618" 
d="M1167 1384h402l-651 -520l700 -864h-356l-557 692l-226 -192v-500h-266v1888h266v-1093z" />
    <glyph glyph-name="l" unicode="l" horiz-adv-x="688" 
d="M213 1888h262v-1888h-262v1888z" />
    <glyph glyph-name="m" unicode="m" horiz-adv-x="2732" 
d="M2277 881q0 95 -27 158.5t-72 102t-104.5 54.5t-123.5 16q-91 0 -172.5 -22.5t-143.5 -68.5t-98.5 -116t-36.5 -165v-840h-266v881q0 95 -27 158.5t-72.5 102t-105 54.5t-123.5 16q-90 0 -172 -26t-143.5 -78t-98 -129t-36.5 -180v-799h-262v1384h262v-208h4
q46 73 108 122.5t132.5 79.5t146 43t149.5 13q69 0 135.5 -14.5t126.5 -45.5t113 -80t96 -118q48 60 103 107.5t122 81t149 51.5t183 18q35 0 87 -7t110 -26t116 -53t104 -88t75 -131.5t29 -182.5v-946h-267v881z" />
    <glyph glyph-name="n" unicode="n" horiz-adv-x="1757" 
d="M193 1384h262v-208h4q46 73 107.5 122.5t131 79.5t144.5 43t149 13q126 0 232 -28t183 -87t120 -151.5t43 -221.5v-946h-266v889q0 77 -22.5 137t-71 101.5t-124.5 63t-184 21.5q-91 0 -172 -26t-142 -78t-96.5 -129t-35.5 -180v-799h-262v1384z" />
    <glyph glyph-name="o" unicode="o" horiz-adv-x="1851" 
d="M131 692q0 99 21.5 193t64.5 176.5t108.5 151t154 117.5t200 76.5t246.5 27.5t246.5 -27.5t199.5 -76.5t153.5 -117.5t108.5 -151t64.5 -176.5t21.5 -193t-21.5 -192.5t-64.5 -175t-108.5 -149.5t-153.5 -117t-199.5 -76t-246.5 -27q-203 0 -352.5 59.5t-248 160.5
t-146.5 234.5t-48 282.5zM1442 692q0 63 -11.5 126.5t-36.5 121t-65.5 107.5t-97.5 86.5t-133 57.5t-172 21q-95 0 -170.5 -21t-132.5 -57.5t-97.5 -86.5t-66 -107.5t-37.5 -121t-12 -126.5q0 -94 27 -186t88 -165.5t159.5 -119t241.5 -45.5q144 0 243 45.5t159.5 119
t87 165.5t26.5 186z" />
    <glyph glyph-name="p" unicode="p" horiz-adv-x="1851" 
d="M193 1384h262v-192h4q38 55 95.5 97t126 70.5t145 43t153.5 14.5q157 0 293 -49t236.5 -142.5t158 -230t57.5 -311.5q0 -174 -57.5 -309.5t-158 -228.5t-236.5 -142t-293 -49q-78 0 -154.5 14t-144.5 41.5t-124.5 69t-96.5 96.5h-4v-708h-262v1916zM1446 684
q0 100 -28 192.5t-88.5 163.5t-156.5 113.5t-231 42.5q-132 0 -227.5 -43.5t-157 -115.5t-90.5 -164t-29 -189q0 -115 36 -209t102 -160.5t159 -102.5t207 -36q117 0 210 35t158.5 101t100.5 160t35 212z" />
    <glyph glyph-name="q" unicode="q" horiz-adv-x="1851" 
d="M1401 1384h262v-1916h-262v725h-4q-42 -62 -99.5 -106.5t-125.5 -74t-143.5 -43.5t-151.5 -14q-157 0 -293 49t-236.5 142t-158.5 228.5t-58 309.5q0 175 58 311.5t158.5 230t236.5 142.5t293 49q75 0 150.5 -14.5t144.5 -43t127 -70.5t98 -97h4v192zM410 684
q0 -118 36 -212t101.5 -160t157.5 -101t204 -35q115 0 208.5 36t159 102.5t101 160.5t35.5 209q0 97 -28.5 189t-89.5 164t-156.5 115.5t-229.5 43.5q-132 0 -226.5 -42.5t-155 -113.5t-89 -163.5t-28.5 -192.5z" />
    <glyph glyph-name="r" unicode="r" horiz-adv-x="1122" 
d="M193 1384h262v-254h4q46 83 99 141t111.5 94t121 52.5t127.5 16.5q24 0 44 -0.5t37.5 -2t34.5 -5t35 -9.5v-287q-49 13 -90.5 21t-93.5 8q-98 0 -177.5 -28.5t-135.5 -85t-86.5 -141.5t-30.5 -199v-705h-262v1384z" />
    <glyph glyph-name="s" unicode="s" horiz-adv-x="1618" 
d="M377 438q0 -46 20 -95.5t69 -90t132 -66.5t209 -26q127 0 208 20t126.5 51.5t62.5 70t17 75.5q0 35 -11 63.5t-40 51t-79 40t-128 29.5l-422 57q-74 11 -142 39.5t-120.5 74.5t-83.5 110t-31 145q0 105 43 187.5t123.5 140.5t196 88.5t259.5 30.5q172 0 295 -35
t204 -97.5t122.5 -148t50.5 -186.5h-266q-2 52 -26.5 99.5t-74.5 83.5t-126 57.5t-179 21.5q-63 0 -127 -10t-116 -35t-84.5 -66t-32.5 -102q0 -35 10 -62.5t36 -48.5t71 -36t116 -25l361 -49q130 -19 222 -51t150 -78t84.5 -106t26.5 -134q0 -120 -48 -208.5t-137.5 -147
t-217 -87t-285.5 -28.5q-80 0 -161 8t-156 28t-142 55t-118 88.5t-83.5 128.5t-39.5 175h262z" />
    <glyph glyph-name="t" unicode="t" horiz-adv-x="1024" 
d="M299 1810h262v-426h389v-204h-389v-856q0 -42 15 -70t42.5 -45.5t67 -25t88.5 -7.5q50 0 91.5 3.5t84.5 13.5v-226q-68 -9 -137 -10.5t-149 -1.5q-97 0 -166 22.5t-113.5 64.5t-65 102t-20.5 135v901h-279v204h279v426z" />
    <glyph glyph-name="u" unicode="u" horiz-adv-x="1761" 
d="M1569 0h-266v209h-5q-46 -72 -106 -121t-128.5 -78.5t-143.5 -42t-150 -12.5q-125 0 -230.5 27.5t-182.5 87t-120.5 151.5t-43.5 221v942h262v-888q0 -77 23 -136.5t71.5 -100.5t124.5 -62t182 -21q91 0 172 26t142 78t97 129.5t36 180.5v794h266v-1384z" />
    <glyph glyph-name="v" unicode="v" horiz-adv-x="1569" 
d="M1253 1384h291l-614 -1384h-291l-619 1384h304l467 -1093z" />
    <glyph glyph-name="w" unicode="w" horiz-adv-x="2437" 
d="M2105 1384h283l-541 -1384h-286l-349 1057h-4l-348 -1057h-278l-529 1384h291l377 -1056h4l344 1056h291l352 -1056h4z" />
    <glyph glyph-name="x" unicode="x" horiz-adv-x="1618" 
d="M1204 1384h352l-577 -667l618 -717h-368l-430 528l-430 -528h-349l607 717l-561 667h356l389 -475z" />
    <glyph glyph-name="y" unicode="y" horiz-adv-x="1569" 
d="M1253 1384h291l-713 -1622q-51 -109 -97.5 -176t-101 -104.5t-122.5 -50.5t-162 -13q-49 0 -94.5 2.5t-97.5 6.5v225q37 -3 71.5 -7.5t83.5 -4.5q61 0 100.5 8.5t68.5 31.5t53.5 65t56.5 108l61 127l-631 1404h304l467 -1093z" />
    <glyph glyph-name="z" unicode="z" horiz-adv-x="1610" 
d="M98 217l1008 946h-959v221h1323v-204l-1019 -959h1060v-221h-1413v217z" />
    <glyph glyph-name="braceleft" unicode="{" horiz-adv-x="889" 
d="M127 778q43 3 83 26t70.5 63.5t49 97t18.5 125.5v450q0 84 26 149t67 109.5t92 67t102 22.5h188v-159h-127q-38 0 -63 -19.5t-39 -51.5t-19.5 -72.5t-5.5 -82.5v-454q0 -61 -13 -110t-34 -87t-47 -65.5t-52.5 -46t-50.5 -29.5t-40 -15v-8q16 -4 40 -14.5t50.5 -28.5
t52.5 -45t47 -65t34 -87.5t13 -111.5v-451q0 -43 5.5 -84t19.5 -73.5t39 -52t63 -19.5h127v-160h-188q-51 0 -102 22.5t-92 67t-67 109.5t-26 149v451q0 69 -18.5 125t-49 96t-70.5 62t-83 24v176z" />
    <glyph glyph-name="bar" unicode="|" horiz-adv-x="598" 
d="M184 1933h222v-1978h-222v1978z" />
    <glyph glyph-name="braceright" unicode="}" horiz-adv-x="889" 
d="M66 -344h122q40 0 65.5 19.5t40 52t20 73.5t5.5 84v451q0 94 27.5 158.5t65 105.5t77 61.5t64.5 26.5v8q-25 6 -64.5 27.5t-77 63t-65 106t-27.5 156.5v454q0 42 -5.5 82.5t-20 72.5t-40 51.5t-65.5 19.5h-122v159h188q51 0 102 -22.5t92 -67t67 -109.5t26 -149v-450
q0 -69 19 -125.5t49.5 -97t69.5 -63.5t79 -26v-176q-40 -2 -79 -24t-69.5 -62t-49.5 -96t-19 -125v-451q0 -84 -26 -149t-67 -109.5t-92 -67t-102 -22.5h-188v160z" />
    <glyph glyph-name="asciitilde" unicode="~" horiz-adv-x="1593" 
d="M184 631q34 66 72 110t80.5 70.5t88.5 37.5t95 11q41 0 88.5 -14t97 -35.5t100.5 -46.5t99.5 -46.5t93 -35.5t82.5 -14q62 0 118 51t112 153l98 -167q-35 -65 -73.5 -108.5t-80 -69.5t-86 -37t-92.5 -11q-44 0 -92 14t-97 35t-99 45.5t-97.5 45.5t-92 35t-83.5 14
q-62 0 -118.5 -51.5t-114.5 -153.5z" />
    <glyph glyph-name="saraithai.alt1" 
d="M-1536 1855l119 218h1229v-218h-1348z" />
    <glyph glyph-name="saraiithai.alt1" 
d="M-1417 2073h962v241h267v-459h-1348z" />
    <glyph glyph-name="sarauethai.alt1" 
d="M-520 2114q0 -19 8 -35.5t21 -29t30 -19.5t35 -7t35 7t30 19.5t21 29t8 35.5q0 20 -8 37t-21 30t-30 20t-35 7t-35 -7t-30 -20t-21 -30t-8 -37zM-684 2114q0 54 20 101t55 82t82 55t101 20t101 -20t82 -55t55 -82t20 -101t-20 -101t-55 -82.5t-82 -55.5t-101 -20h-1110
l119 218h741q-3 6 -5.5 18.5t-2.5 22.5z" />
    <glyph glyph-name="saraueethai.alt1" 
d="M-1417 2073h553v241h262v-241h147v241h267v-459h-1348z" />
    <glyph glyph-name="saraithai.alt2" 
d="M-2228 1855l123 218h1523v-218h-1646z" />
    <glyph glyph-name="saraiithai.alt2" 
d="M-2105 2073h1261v241h262v-459h-1646z" />
    <glyph glyph-name="sarauethai.alt2" 
d="M-848 2114q0 -38 27 -64.5t67 -26.5q37 0 63.5 26.5t26.5 64.5q0 40 -26.5 67t-63.5 27q-40 0 -67 -27t-27 -67zM-1016 2114q0 54 21 101t56.5 82t83 55t101.5 20t101 -20t82 -55t55 -82t20 -101t-20 -101t-55 -82.5t-82 -55.5t-101 -20h-1454l119 218h1081
q-3 6 -5.5 18.5t-2.5 22.5z" />
    <glyph glyph-name="saraueethai.alt2" 
d="M-2105 2073h852v241h258v-241h151v241h262v-459h-1646z" />
    <glyph glyph-name="maiekthai.alt2" 
d="M-844 3023h262v-434h-262v434z" />
    <glyph glyph-name="maithothai.alt2" 
d="M-1241 2589v237h-135v205h368v-238q103 0 179 19t125.5 51t73.5 75.5t24 92.5h254q0 -86 -39 -165.5t-120.5 -141t-208.5 -98.5t-304 -37h-217z" />
    <glyph glyph-name="maitrithai.alt2" 
d="M-672 2589q0 31 -2 61t-9.5 54t-21 38.5t-36.5 14.5q-25 0 -40 -14.5t-23.5 -38.5t-11.5 -54t-3 -61h-185q0 29 -3.5 59t-12 54t-23.5 39.5t-38 15.5q-25 0 -41.5 -15.5t-26.5 -39.5t-14 -54t-4 -59h-213q-6 98 13 173t56.5 125.5t88.5 76.5t108 26q41 0 73 -8.5
t56.5 -23t42 -34t29.5 -40.5q13 21 32.5 40.5t45 34t58 23t72.5 8.5q46 0 83 -14.5t65 -41t47.5 -62.5t30.5 -79q17 8 35.5 28t33.5 51t23.5 71t5.5 88h242q0 -69 -26 -139t-70 -131t-103 -106.5t-125 -65.5h-209z" />
    <glyph glyph-name="maichattawathai.alt2" 
d="M-582 2789v-200h-254v200h-241v205h241v201h254v-201h246v-205h-246z" />
    <glyph glyph-name="saraithai.alt3" 
d="M-2191 1855l118 218h1885v-218h-2003z" />
    <glyph glyph-name="saraiithai.alt3" 
d="M-2073 2073h1618v241h267v-459h-2003z" />
    <glyph glyph-name="sarauethai.alt3" 
d="M-520 2114q0 -19 8 -35.5t21 -29t30 -19.5t35 -7t35 7t30 19.5t21 29t8 35.5q0 20 -8 37t-21 30t-30 20t-35 7t-35 -7t-30 -20t-21 -30t-8 -37zM-684 2114q0 54 20 101t55 82t82 55t101 20t101 -20t82 -55t55 -82t20 -101t-20 -101t-55 -82.5t-82 -55.5t-101 -20h-1765
l118 218h1397q-3 6 -5.5 18.5t-2.5 22.5z" />
    <glyph glyph-name="saraueethai.alt3" 
d="M-2073 2073h1209v241h262v-241h147v241h267v-459h-2003z" />
    <glyph glyph-name="maiekthai.alt4" 
d="M-455 2818h267v-434h-267v434z" />
    <glyph glyph-name="maithothai.alt4" 
d="M-856 2384v237h-135v205h368v-237q103 0 179 18.5t125.5 51t73.5 75.5t24 92h254q0 -86 -39.5 -165.5t-121.5 -141t-209 -98.5t-302 -37h-217z" />
    <glyph glyph-name="maitrithai.alt4" 
d="M-340 2388q0 31 -2 61t-9.5 54t-21.5 38.5t-37 14.5q-24 0 -39.5 -14.5t-23.5 -38.5t-11 -54t-3 -61h-181q0 29 -4 59t-13.5 54t-25.5 39.5t-39 15.5q-24 0 -40.5 -15.5t-26.5 -39.5t-14.5 -54t-4.5 -59h-213q-6 98 13.5 173t57 125.5t88.5 76.5t108 26q43 0 75 -8.5
t56 -23t40.5 -34t28.5 -40.5q14 21 33.5 40.5t45 34t58 23t72.5 8.5q46 0 83.5 -14.5t66 -40.5t48 -62t28.5 -79q17 7 36 27.5t34.5 51t23.5 70.5t4 88h242q0 -69 -26 -139t-70 -131t-103 -106.5t-125 -65.5h-209z" />
    <glyph glyph-name="maichattawathai.alt4" 
d="M-188 2585v-201h-267v201h-241v204h241v201h267v-201h241v-204h-241z" />
    <glyph glyph-name="maiekthai.alt5" 
d="M-926 2818h262v-434h-262v434z" />
    <glyph glyph-name="maithothai.alt5" 
d="M-1225 2384v237h-135v205h369v-237q103 0 178.5 18.5t125 51t73.5 75.5t24 92h254q0 -86 -39 -165.5t-120.5 -141t-208.5 -98.5t-304 -37h-217z" />
    <glyph glyph-name="maitrithai.alt5" 
d="M-754 2384q0 31 -2 61t-9.5 54t-21 38.5t-36.5 14.5q-25 0 -40 -14.5t-23.5 -38.5t-11.5 -54t-3 -61h-184q0 29 -3.5 59t-12.5 54t-24 39.5t-38 15.5q-25 0 -41.5 -15.5t-26.5 -39.5t-14 -54t-4 -59h-213q-6 98 13 173t56.5 125.5t88.5 76.5t108 26q42 0 74 -8.5t56 -23
t41.5 -34t29.5 -40.5q28 43 78.5 74.5t130.5 31.5q46 0 82.5 -14.5t64.5 -40.5t47.5 -62t30.5 -79q17 7 35.5 27.5t33.5 51t23.5 70.5t5.5 88h242q0 -69 -26 -139t-70 -131t-103 -106.5t-125 -65.5h-209z" />
    <glyph glyph-name="maichattawathai.alt5" 
d="M-664 2585v-201h-254v201h-241v204h241v201h254v-201h246v-204h-246z" />
    <glyph glyph-name="sarauthai.alt6" 
d="M-819 -803v377h-152v217h410v-594h-258z" />
    <glyph glyph-name="sarauuthai.alt6" 
d="M-1331 -209h401v-201q0 -89 45.5 -136.5t134.5 -47.5q87 0 134 47.5t47 136.5v201h258v-201q0 -80 -24.5 -151.5t-78 -125t-136.5 -85t-200 -31.5q-114 0 -196.5 26.5t-136.5 76t-81 119t-28 155.5h-139v217z" />
    <glyph glyph-name="phinthuthai.alt6" 
d="M-954 -393q0 40 15 75.5t41.5 62.5t62.5 42.5t77 15.5q39 0 74 -15.5t61.5 -42.5t42 -62.5t15.5 -75.5t-15.5 -76t-42 -63t-61.5 -42.5t-74 -15.5q-41 0 -77 15.5t-62.5 42.5t-41.5 63t-15 76z" />
    <glyph glyph-name="sarauthai.alt7" 
d="M-815 -803v377h-152v217h410v-594h-258z" />
    <glyph glyph-name="sarauuthai.alt7" 
d="M-1618 -209h401v-201q0 -89 45.5 -136.5t135.5 -47.5q86 0 133 47.5t47 136.5v201h258v-201q0 -80 -24.5 -151.5t-77.5 -125t-136 -85t-200 -31.5q-114 0 -196.5 26.5t-137 76t-81.5 119t-28 155.5h-139v217z" />
    <glyph glyph-name="phinthuthai.alt7" 
d="M-926 -397q0 40 15 75.5t41.5 62.5t62.5 42.5t78 15.5q38 0 73 -15.5t61.5 -42.5t42 -62.5t15.5 -75.5t-15.5 -76t-42 -63t-61.5 -42.5t-73 -15.5q-42 0 -78 15.5t-62.5 42.5t-41.5 63t-15 76z" />
    <glyph glyph-name="maihanakatthai.alt8" 
d="M-1171 1855v357h262v-144h1147v-213h-1409z" />
    <glyph glyph-name="maiekthai.alt8" 
d="M-803 3023h262v-434h-262v434z" />
    <glyph glyph-name="maithothai.alt8" 
d="M-1143 2589v237h-135v205h369v-238q103 0 178.5 19t125 51t73.5 75.5t24 92.5h254q0 -86 -39 -165.5t-120.5 -141t-208.5 -98.5t-304 -37h-217z" />
    <glyph glyph-name="maitrithai.alt8" 
d="M-455 2589q0 31 -2 61t-9.5 54t-21 38.5t-36.5 14.5q-25 0 -40 -14.5t-23.5 -38.5t-11.5 -54t-3 -61h-184q0 29 -3.5 59t-12.5 54t-24 39.5t-38 15.5q-25 0 -41.5 -15.5t-26.5 -39.5t-14 -54t-4 -59h-213q-6 98 13 173t56.5 125.5t88.5 76.5t108 26q42 0 74 -8.5t56 -23
t41.5 -34t29.5 -40.5q28 43 78.5 74.5t130.5 31.5q46 0 82.5 -14.5t64.5 -41t47.5 -62.5t30.5 -79q17 8 35.5 28t33.5 51t23.5 71t5.5 88h242q0 -69 -26 -139t-70 -131t-103 -106.5t-125 -65.5h-209z" />
    <glyph glyph-name="maichattawathai.alt8" 
d="M-541 2789v-200h-254v200h-241v205h241v201h254v-201h246v-205h-246z" />
    </font>
</defs>
</svg>
